<svg width="28" height="28" viewBox="0 0 28 28" fill="none" xmlns="http://www.w3.org/2000/svg">
<circle cx="14.1732" cy="14.1715" r="13.5684" fill="#F5B300"/>
<path d="M11.0672 9.09878C11.4565 9.20495 11.8458 9.27573 12.2351 9.3819C12.6244 9.48807 13.0137 9.55885 13.4029 9.66502C13.5091 9.70041 13.5445 9.66502 13.5799 9.55885C13.7214 8.95723 13.863 8.39099 14.0046 7.78936C14.04 7.68319 14.0753 7.6478 14.1815 7.68319C14.5354 7.78936 14.8539 7.86014 15.2078 7.93092C15.314 7.96631 15.314 8.0017 15.2786 8.07248C15.137 8.63872 14.9955 9.24034 14.8539 9.80658C14.8539 9.84197 14.8539 9.87736 14.8185 9.94814C15.1017 10.0189 15.4202 10.0897 15.7033 10.1605C15.7387 10.1605 15.7741 10.0897 15.8094 10.0543C15.9156 9.59424 16.0218 9.16956 16.1633 8.7095C16.1987 8.56794 16.2341 8.42638 16.2695 8.28482C16.2695 8.21404 16.3049 8.17865 16.3757 8.21404C16.7296 8.32021 17.0835 8.39099 17.4728 8.49716C17.5082 8.49716 17.5082 8.53255 17.5435 8.53255C17.4374 8.99262 17.3312 9.41729 17.225 9.84197C17.1896 10.0189 17.1543 10.1959 17.0835 10.3728C17.0481 10.479 17.0835 10.5144 17.1896 10.5498C17.5789 10.7267 17.9682 10.9037 18.3575 11.0806C18.7114 11.293 19.0299 11.5761 19.2776 11.93C19.5962 12.4608 19.6315 13.0271 19.49 13.5933C19.3838 13.9826 19.2423 14.3365 18.9591 14.6196C18.7468 14.8319 18.4637 14.9735 18.1806 15.0797C18.1452 15.0797 18.1098 15.115 18.039 15.115C18.1806 15.2212 18.3221 15.292 18.4637 15.3982C18.8884 15.7167 19.1715 16.106 19.313 16.6014C19.3838 16.9907 19.3484 17.4154 19.2423 17.8047C19.1007 18.3001 18.9237 18.7248 18.6052 19.1141C18.216 19.5742 17.7205 19.8219 17.1543 19.8927C16.4111 19.9988 15.7033 19.9281 14.9955 19.8219C14.8893 19.7865 14.8185 19.8219 14.7831 19.9281C14.6416 20.4943 14.5 21.0959 14.3585 21.6622C14.3231 21.8037 14.3231 21.8391 14.1461 21.7683C13.8276 21.6975 13.4737 21.5914 13.1552 21.5206C13.049 21.4852 13.049 21.4498 13.0844 21.379C13.226 20.7774 13.3676 20.1758 13.5445 19.6096C13.5445 19.5388 13.5799 19.5034 13.5091 19.468C13.226 19.3972 12.9429 19.3264 12.6244 19.2557C12.5536 19.5742 12.4474 19.8927 12.3766 20.2112C12.3059 20.5297 12.1997 20.8482 12.1289 21.1667C12.0935 21.2375 12.0935 21.2729 11.9873 21.2375C11.6335 21.1313 11.2796 21.0605 10.9257 20.9898C10.8195 20.9544 10.8195 20.919 10.8549 20.8482C10.9964 20.2466 11.138 19.6449 11.3149 19.0787C11.3149 19.0433 11.3503 19.0079 11.3503 18.9371C10.5364 18.7248 9.7224 18.5125 8.87305 18.3001C8.94383 18.1586 8.97922 18.0524 9.05 17.9108C9.19155 17.5923 9.33311 17.2738 9.43928 16.9907C9.47467 16.8845 9.51006 16.8845 9.61623 16.8845C9.86396 16.9553 10.1471 17.0261 10.3948 17.0615C10.6779 17.1323 10.8903 16.9907 10.9257 16.743C11.3857 14.9381 11.8458 13.1332 12.2705 11.293C12.3412 11.0098 12.1643 10.6913 11.8458 10.5852C11.5273 10.479 11.2088 10.4082 10.9257 10.3374C10.8549 10.3374 10.8195 10.302 10.8549 10.2313C10.961 9.84197 11.0672 9.41729 11.1734 9.02801C11.0318 9.13417 11.0318 9.13417 11.0672 9.09878ZM12.8721 17.8401C12.9075 17.8401 12.9429 17.8755 12.9429 17.8755C13.5091 18.017 14.1107 18.194 14.7124 18.2294C15.137 18.2647 15.5263 18.2647 15.9156 18.1232C16.588 17.9108 16.8711 17.0261 16.4819 16.4599C16.3049 16.1767 16.0218 15.9998 15.7387 15.8228C15.1016 15.4689 14.3585 15.3274 13.6507 15.1858C13.5445 15.1504 13.5445 15.1858 13.5091 15.292C13.4383 15.6459 13.3322 15.9644 13.2614 16.3183C13.1198 16.8138 13.0137 17.3092 12.8721 17.8401ZM15.8448 14.2303C15.9156 14.2303 16.0926 14.1949 16.2341 14.1595C16.9065 14.018 17.2604 13.2394 16.9065 12.6378C16.7296 12.3193 16.4111 12.1069 16.0926 11.9654C15.5971 11.753 15.1016 11.6468 14.5708 11.5053C14.4646 11.4699 14.4292 11.5053 14.3939 11.6115C14.2169 12.3546 14.04 13.0624 13.8276 13.8056C13.7922 13.8764 13.8276 13.9118 13.8984 13.9472C14.04 13.9826 14.1461 14.018 14.2877 14.0534C14.8185 14.1241 15.2786 14.2303 15.8448 14.2303Z" fill="white"/>
</svg>
