<svg width="28" height="29" viewBox="0 0 28 29" fill="none" xmlns="http://www.w3.org/2000/svg">
<circle cx="14.1732" cy="14.5626" r="13.5684" fill="#343434"/>
<path d="M14.2672 7.02441V12.5739C14.2672 12.5974 14.2436 12.621 14.22 12.621C14.0551 12.693 13.9138 12.7643 13.7489 12.8357C13.5369 12.9306 13.3013 13.0262 13.0893 13.1453L12.3119 13.502L11.6758 13.7881L10.8984 14.1455C10.6864 14.2411 10.4744 14.336 10.2388 14.4551C10.0739 14.5264 9.88548 14.622 9.72057 14.6934C9.69702 14.6934 9.69702 14.7169 9.67346 14.6934H9.6499C9.72057 14.5742 9.79125 14.4786 9.86192 14.3602C10.2388 13.7167 10.6393 13.074 11.0162 12.4305C11.4167 11.7406 11.8407 11.0494 12.2412 10.3588C12.6181 9.71601 12.9951 9.07323 13.372 8.45401C13.6547 7.97681 13.9373 7.52518 14.1965 7.04797C14.2436 7.04797 14.2436 7.02441 14.2672 7.02441C14.2672 7.02441 14.2436 7.02441 14.2672 7.02441Z" fill="white"/>
<path d="M18.8373 14.6931C18.484 14.9314 18.1071 15.1454 17.7537 15.3594C16.5994 16.0507 15.4686 16.7177 14.3143 17.4083C14.2908 17.4083 14.2908 17.4318 14.2672 17.4318C14.2437 17.4318 14.2437 17.4083 14.2437 17.4083V12.6207C14.2437 12.5972 14.2672 12.5972 14.2908 12.5972C14.385 12.6443 14.4792 12.6927 14.597 12.7399C14.8797 12.8832 15.1859 13.0024 15.4686 13.145C15.7278 13.2642 15.9633 13.3833 16.2225 13.4782C16.4816 13.5973 16.7172 13.7165 16.9763 13.8356C17.1883 13.9312 17.4239 14.0261 17.6359 14.1452C17.8479 14.2408 18.0835 14.3357 18.2955 14.4548C18.4604 14.5262 18.6253 14.6218 18.8138 14.6931C18.8138 14.6695 18.8138 14.6931 18.8373 14.6931Z" fill="white"/>
<path d="M14.267 22.1005C14.2435 22.1005 14.267 22.1005 14.267 22.1005C14.2435 22.1005 14.2435 22.1005 14.2199 22.0762C13.7488 21.4099 13.3012 20.7665 12.83 20.0994L11.4166 18.0991C10.969 17.4563 10.4978 16.8135 10.0503 16.1458L9.6969 15.6457C9.6969 15.6222 9.67334 15.6222 9.67334 15.5986C9.6969 15.5986 9.6969 15.6222 9.72045 15.6222C10.3565 16.0031 11.0161 16.3841 11.6522 16.7651C12.3824 17.218 13.1363 17.6468 13.8666 18.0991C13.9843 18.1704 14.1257 18.2418 14.2435 18.3131C14.267 18.3131 14.267 18.3373 14.267 18.3609V22.1005Z" fill="white"/>
<path d="M9.6499 14.4438C9.6499 14.4203 9.6499 14.4203 9.6499 14.4438C9.88548 14.3247 10.1211 14.2298 10.3566 14.1107L11.2754 13.6819C11.5109 13.5628 11.7465 13.4679 11.9821 13.3487C12.3119 13.1818 12.6652 13.0391 12.9951 12.8722C13.2306 12.7766 13.4662 12.6575 13.7018 12.5626C13.8667 12.4913 14.0316 12.4199 14.1965 12.3243C14.22 12.3243 14.22 12.3008 14.2436 12.3008V17.159C14.22 17.1832 14.22 17.159 14.1965 17.159C14.1258 17.1119 14.0551 17.0876 14.008 17.0399L9.69702 14.4681C9.67346 14.4438 9.6499 14.4438 9.6499 14.4438ZM18.7666 15.3255C18.7666 15.3491 18.7666 15.3491 18.7431 15.3727C17.3767 17.3259 16.0104 19.2549 14.6441 21.2082C14.5027 21.4222 14.3614 21.6127 14.22 21.8274V18.04C14.5263 17.8496 14.8325 17.6591 15.1388 17.4928L18.7431 15.3491C18.7431 15.3255 18.7666 15.3255 18.7666 15.3255Z" fill="#4E4E4E"/>
<path d="M14.2671 12.5974V7.04932L18.7901 14.6227C18.8137 14.6462 18.8372 14.6698 18.8372 14.694C18.743 14.6469 18.6488 14.5984 18.531 14.5513C18.4132 14.5035 18.2954 14.4322 18.1776 14.3844C18.1069 14.3609 18.0363 14.3131 17.942 14.2888C17.8243 14.2417 17.6829 14.1697 17.5651 14.1226C17.4945 14.0984 17.4238 14.0512 17.3531 14.027L16.8584 13.813C16.7642 13.7652 16.6935 13.7416 16.5993 13.6938C16.4815 13.6461 16.3637 13.5747 16.2459 13.5269C16.1752 13.5034 16.1046 13.4556 16.0339 13.432L15.5392 13.2173C15.445 13.1702 15.3743 13.146 15.2801 13.0982C15.1623 13.0511 15.0445 12.979 14.9267 12.9313C14.856 12.8841 14.7618 12.8599 14.6911 12.8128L14.2671 12.5981V12.5974Z" fill="#4E4E4E"/>
</svg>
