<svg width="229" height="495" viewBox="0 0 229 495" fill="none" xmlns="http://www.w3.org/2000/svg">
<path opacity="0.5" fill-rule="evenodd" clip-rule="evenodd" d="M85.463 0.987779C85.2311 1.35823 77.5776 15.1938 74.7756 20.3076C73.8402 22.0147 71.6198 26.0405 69.8416 29.2538C68.0632 32.4672 65.8866 36.4109 65.0049 38.0176C64.1229 39.6242 61.9025 43.6501 60.0701 46.9638C58.2379 50.2776 55.9729 54.3856 55.037 56.0927C54.1008 57.7998 51.836 61.9078 50.0042 65.2216C48.1722 68.5354 44.3837 75.3957 41.5855 80.4668C38.7872 85.5379 34.4599 93.3739 31.9688 97.8801C29.478 102.386 27.4712 106.103 27.5094 106.139C27.5475 106.175 28.6617 105.157 29.9851 103.877C35.1721 98.8603 38.6414 95.4871 44.2037 90.0521C49.4766 84.8998 55.3061 79.2141 73.2171 61.7543C76.6173 58.4396 80.5585 54.6157 81.9754 53.2565C83.3923 51.8976 84.6867 50.6035 84.852 50.381C85.0172 50.1584 85.2563 49.9824 85.3834 49.9897C85.5104 49.997 88.5754 53.1233 92.1946 56.9368C95.8137 60.7504 99.2616 64.3801 99.8563 65.0027C107.765 73.2796 126.092 92.4995 128.096 94.6187C134.051 100.917 139.181 106.221 139.251 106.154C139.292 106.115 138.332 104.161 137.117 101.811C135.901 99.4605 133.298 94.3746 131.331 90.5085C126.941 81.879 120.885 69.998 118.999 66.317C118.228 64.8108 115.92 60.292 113.872 56.2753C111.823 52.2586 107.861 44.4945 105.067 39.0217C102.273 33.549 98.4392 26.0314 96.5476 22.3159C94.6558 18.6005 92.3049 13.9995 91.3235 12.0916C90.342 10.1837 88.6683 6.89726 87.604 4.78849C86.5398 2.67973 85.6437 0.928441 85.6127 0.89649C85.5816 0.864722 85.5142 0.905802 85.463 0.987779ZM83.4809 82.0709C81.1291 84.2275 74.0622 90.7736 64.9058 99.2773C61.606 102.342 53.8548 109.528 47.681 115.246C41.5071 120.965 34.1043 127.826 31.2303 130.495C28.3563 133.163 20.9535 140.023 14.7796 145.74C8.60579 151.457 1.24653 158.276 -1.57428 160.893C-4.39508 163.51 -11.7979 170.371 -18.0249 176.14C-30.8648 188.034 -38.2668 194.896 -45.1006 201.24C-47.6979 203.651 -49.9913 205.774 -50.197 205.958C-50.403 206.142 -50.5425 206.319 -50.5069 206.351C-50.45 206.403 -43.2496 206.253 -12.1221 205.553L-4.18703 205.375L6.07994 215.084C11.7268 220.425 27.3551 235.27 40.8098 248.073C54.2643 260.876 69.6492 275.497 74.9982 280.564L84.7236 289.776L90.9743 283.941C94.4123 280.732 99.751 275.765 102.838 272.903C105.926 270.041 111.456 264.904 115.129 261.487C118.801 258.07 128.145 249.41 135.892 242.243C143.639 235.076 149.953 229.15 149.923 229.075C149.718 228.563 78.9042 161.92 78.3903 161.755C78.3054 161.728 74.1921 165.474 69.2497 170.079L60.2636 178.452L87.4537 204.223C102.408 218.397 114.671 230.07 114.704 230.163C114.753 230.304 95.2254 248.725 87.1069 256.194L84.7289 258.383L81.1976 255.008C73.7007 247.843 28.0145 204.394 17.8865 194.797L7.23167 184.701L16.6182 175.92C21.7808 171.091 31.0126 162.446 37.1332 156.708C52.3638 142.431 73.8759 122.296 80.2088 116.391L85.4444 111.508L103.333 128.532C113.172 137.895 130.611 154.477 142.086 165.382L162.951 185.208L170.538 185.327C174.711 185.393 182.131 185.499 187.028 185.564L195.931 185.681L189.251 179.312C185.577 175.808 179.35 169.862 175.413 166.097C171.476 162.332 168.211 159.209 168.158 159.159C157.949 149.414 126.298 119.133 112.717 106.119C105.487 99.1901 96.4841 90.5911 92.7113 87.01C88.9385 83.4287 85.7962 80.4142 85.7285 80.3109C85.6607 80.2075 84.6493 80.9995 83.4809 82.0709Z" fill="#F4E7FF"/>
<g opacity="0.34">
<g filter="url(#filter0_f_334_1936)">
<path d="M-13.4584 359.109L-35.0813 245.28L-3.6897 243.657L-13.4584 359.109Z" fill="#56C2FF"/>
<path d="M-16.6692 360.113L-7.22805 245.362L10.3538 248.191L-16.6692 360.113Z" fill="#F05FFD"/>
<path d="M-16.3968 358.97L9.3582 246.567L30.1729 253.475L-16.3968 358.97Z" fill="#9440FF"/>
<path d="M-15.9142 359.066L28.5218 252.655L47.8642 262.993L-15.9142 359.066Z" fill="#5C09E4"/>
</g>
<g filter="url(#filter1_f_334_1936)">
<path d="M4.40872 363.817L27.9955 250.378L57.6183 260.893L4.40872 363.817Z" fill="#56FFEB"/>
<path d="M1.05764 363.515L53.6962 261.113L68.8571 270.455L1.05764 363.515Z" fill="#B85FFD"/>
<path d="M1.74705 362.563L68.5591 268.574L85.1452 282.923L1.74705 362.563Z" fill="#763FBF"/>
<path d="M2.15637 362.837L83.9338 281.533L97.8475 298.486L2.15637 362.837Z" fill="#2809E4"/>
</g>
</g>
<defs>
<filter id="filter0_f_334_1936" x="-166.004" y="112.735" width="344.79" height="378.3" filterUnits="userSpaceOnUse" color-interpolation-filters="sRGB">
<feFlood flood-opacity="0" result="BackgroundImageFix"/>
<feBlend mode="normal" in="SourceGraphic" in2="BackgroundImageFix" result="shape"/>
<feGaussianBlur stdDeviation="65.4611" result="effect1_foregroundBlur_334_1936"/>
</filter>
<filter id="filter1_f_334_1936" x="-129.865" y="119.456" width="358.634" height="375.283" filterUnits="userSpaceOnUse" color-interpolation-filters="sRGB">
<feFlood flood-opacity="0" result="BackgroundImageFix"/>
<feBlend mode="normal" in="SourceGraphic" in2="BackgroundImageFix" result="shape"/>
<feGaussianBlur stdDeviation="65.4611" result="effect1_foregroundBlur_334_1936"/>
</filter>
</defs>
</svg>
