<svg width="738" height="433" viewBox="0 0 738 433" fill="none" xmlns="http://www.w3.org/2000/svg">
<path d="M737.057 383.507L2.10986 383.507L12.8409 376.458" stroke="#808A9D" stroke-opacity="0.58" stroke-width="1.01572"/>
<path d="M737.124 262.22L2.17725 262.22L12.9083 255.171" stroke="#808A9D" stroke-opacity="0.58" stroke-width="1.01572"/>
<path d="M737.192 140.933L2.24487 140.933L12.9759 133.883" stroke="#808A9D" stroke-opacity="0.58" stroke-width="1.01572"/>
<path d="M737.259 19.6452L2.31226 19.6453L13.0433 12.5959" stroke="#808A9D" stroke-opacity="0.58" stroke-width="1.01572"/>
<path d="M79.1618 398.909C79.2329 397.974 79.5934 397.243 80.2435 396.715C80.8936 396.187 81.7366 395.923 82.7727 395.923C83.4633 395.923 84.0575 396.05 84.5552 396.303C85.0631 396.547 85.444 396.882 85.6979 397.309C85.962 397.736 86.0941 398.218 86.0941 398.756C86.0941 399.386 85.9112 399.93 85.5456 400.387C85.1901 400.844 84.7228 401.138 84.1439 401.27V401.347C84.8041 401.509 85.3272 401.829 85.7132 402.306C86.0991 402.784 86.2921 403.408 86.2921 404.18C86.2921 404.759 86.1601 405.282 85.896 405.75C85.6319 406.207 85.2358 406.567 84.7076 406.831C84.1794 407.096 83.5446 407.228 82.8031 407.228C81.7265 407.228 80.8428 406.948 80.1521 406.39C79.4614 405.821 79.0754 405.018 78.9942 403.982H80.3349C80.406 404.592 80.6549 405.089 81.0815 405.475C81.5081 405.861 82.0769 406.054 82.7879 406.054C83.4989 406.054 84.0372 405.872 84.4029 405.506C84.7787 405.13 84.9666 404.648 84.9666 404.058C84.9666 403.297 84.7127 402.748 84.2048 402.413C83.697 402.078 82.9301 401.91 81.9042 401.91H81.5538V400.752H81.9195C82.8539 400.742 83.5598 400.59 84.0372 400.295C84.5146 399.991 84.7533 399.523 84.7533 398.894C84.7533 398.355 84.5756 397.924 84.2201 397.599C83.8747 397.273 83.377 397.111 82.7269 397.111C82.0972 397.111 81.5893 397.273 81.2034 397.599C80.8174 397.924 80.5889 398.36 80.5178 398.909H79.1618ZM97.4062 398.985H98.8688L95.3798 402.916L99.1583 407.151H97.6042L93.9172 403.007V407.151H92.5764V398.985H93.9172V402.946L97.4062 398.985ZM107.207 401.042C107.207 401.55 107.055 401.946 106.75 402.23C106.446 402.515 106.054 402.708 105.577 402.809V402.87C106.085 402.941 106.527 403.124 106.903 403.419C107.278 403.703 107.466 404.15 107.466 404.759C107.466 405.105 107.4 405.425 107.268 405.719C107.146 406.014 106.953 406.268 106.689 406.481C106.425 406.694 106.085 406.862 105.669 406.984C105.252 407.096 104.749 407.151 104.16 407.151H100.641V398.985H104.145C104.724 398.985 105.242 399.051 105.699 399.183C106.166 399.305 106.532 399.518 106.796 399.823C107.07 400.117 107.207 400.524 107.207 401.042ZM106.08 404.759C106.08 404.292 105.902 403.957 105.547 403.754C105.191 403.551 104.668 403.449 103.977 403.449H101.981V406.07H104.008C104.678 406.07 105.191 405.973 105.547 405.78C105.902 405.577 106.08 405.237 106.08 404.759ZM105.851 401.209C105.851 400.823 105.709 400.544 105.425 400.371C105.15 400.189 104.699 400.097 104.069 400.097H101.981V402.337H103.825C104.485 402.337 104.988 402.245 105.333 402.063C105.679 401.88 105.851 401.595 105.851 401.209ZM112.512 398.848C113.507 398.848 114.244 399.066 114.721 399.503C115.199 399.94 115.437 400.636 115.437 401.59V407.151H114.462L114.203 405.993H114.142C113.909 406.288 113.665 406.537 113.411 406.74C113.167 406.933 112.883 407.075 112.558 407.167C112.243 407.258 111.857 407.304 111.4 407.304C110.912 407.304 110.47 407.217 110.074 407.045C109.688 406.872 109.384 406.608 109.16 406.252C108.937 405.887 108.825 405.43 108.825 404.881C108.825 404.069 109.145 403.444 109.785 403.007C110.425 402.56 111.41 402.317 112.741 402.276L114.127 402.23V401.743C114.127 401.062 113.98 400.59 113.685 400.326C113.391 400.062 112.974 399.93 112.436 399.93C112.009 399.93 111.603 399.996 111.217 400.128C110.831 400.25 110.47 400.392 110.135 400.554L109.724 399.549C110.079 399.356 110.501 399.193 110.988 399.061C111.476 398.919 111.984 398.848 112.512 398.848ZM112.908 403.205C111.892 403.246 111.186 403.408 110.79 403.693C110.404 403.977 110.211 404.378 110.211 404.896C110.211 405.354 110.349 405.689 110.623 405.902C110.907 406.115 111.268 406.222 111.705 406.222C112.395 406.222 112.969 406.034 113.426 405.658C113.883 405.272 114.112 404.683 114.112 403.891V403.16L112.908 403.205ZM121.845 398.833C122.85 398.833 123.658 399.183 124.267 399.884C124.887 400.585 125.197 401.641 125.197 403.053C125.197 403.977 125.054 404.759 124.77 405.399C124.496 406.029 124.105 406.506 123.597 406.831C123.099 407.146 122.51 407.304 121.829 407.304C121.413 407.304 121.042 407.248 120.717 407.136C120.392 407.024 120.113 406.882 119.879 406.71C119.656 406.527 119.463 406.329 119.3 406.115H119.209C119.229 406.288 119.249 406.506 119.27 406.77C119.29 407.035 119.3 407.263 119.3 407.456V410.808H117.96V398.985H119.057L119.239 400.097H119.3C119.463 399.864 119.656 399.65 119.879 399.457C120.113 399.264 120.387 399.112 120.702 399C121.027 398.888 121.408 398.833 121.845 398.833ZM121.601 399.96C121.052 399.96 120.611 400.067 120.275 400.28C119.94 400.483 119.696 400.793 119.544 401.209C119.392 401.626 119.31 402.154 119.3 402.794V403.053C119.3 403.723 119.371 404.292 119.514 404.759C119.656 405.227 119.894 405.582 120.23 405.826C120.575 406.07 121.042 406.192 121.631 406.192C122.129 406.192 122.535 406.054 122.85 405.78C123.175 405.506 123.414 405.135 123.566 404.668C123.729 404.191 123.81 403.647 123.81 403.038C123.81 402.103 123.627 401.357 123.262 400.798C122.906 400.239 122.353 399.96 121.601 399.96ZM132.822 400.112H130.155V407.151H128.83V400.112H126.194V398.985H132.822V400.112ZM137.523 398.848C138.519 398.848 139.255 399.066 139.732 399.503C140.21 399.94 140.448 400.636 140.448 401.59V407.151H139.473L139.214 405.993H139.153C138.92 406.288 138.676 406.537 138.422 406.74C138.178 406.933 137.894 407.075 137.569 407.167C137.254 407.258 136.868 407.304 136.411 407.304C135.923 407.304 135.482 407.217 135.085 407.045C134.699 406.872 134.395 406.608 134.171 406.252C133.948 405.887 133.836 405.43 133.836 404.881C133.836 404.069 134.156 403.444 134.796 403.007C135.436 402.56 136.421 402.317 137.752 402.276L139.138 402.23V401.743C139.138 401.062 138.991 400.59 138.696 400.326C138.402 400.062 137.985 399.93 137.447 399.93C137.02 399.93 136.614 399.996 136.228 400.128C135.842 400.25 135.482 400.392 135.146 400.554L134.735 399.549C135.09 399.356 135.512 399.193 136 399.061C136.487 398.919 136.995 398.848 137.523 398.848ZM137.919 403.205C136.904 403.246 136.198 403.408 135.802 403.693C135.416 403.977 135.223 404.378 135.223 404.896C135.223 405.354 135.36 405.689 135.634 405.902C135.918 406.115 136.279 406.222 136.716 406.222C137.406 406.222 137.98 406.034 138.437 405.658C138.894 405.272 139.123 404.683 139.123 403.891V403.16L137.919 403.205ZM149.187 407.151H147.831V400.097H145.424C145.322 401.387 145.195 402.489 145.043 403.403C144.89 404.307 144.697 405.044 144.464 405.613C144.23 406.181 143.951 406.598 143.626 406.862C143.301 407.126 142.92 407.258 142.483 407.258C142.351 407.258 142.219 407.248 142.087 407.228C141.965 407.217 141.864 407.192 141.782 407.151V406.146C141.843 406.166 141.909 406.181 141.98 406.192C142.051 406.202 142.123 406.207 142.194 406.207C142.417 406.207 142.62 406.115 142.803 405.933C142.986 405.75 143.148 405.47 143.291 405.095C143.443 404.719 143.58 404.246 143.702 403.678C143.824 403.099 143.931 402.418 144.022 401.636C144.113 400.854 144.195 399.97 144.266 398.985H149.187V407.151ZM99.1556 426.039C100.446 425.003 101.456 424.155 102.187 423.495C102.919 422.824 103.533 422.129 104.031 421.407C104.539 420.676 104.793 419.96 104.793 419.259C104.793 418.599 104.63 418.081 104.305 417.705C103.99 417.319 103.477 417.126 102.766 417.126C102.076 417.126 101.537 417.345 101.151 417.781C100.776 418.208 100.572 418.782 100.542 419.503H99.2013C99.2419 418.365 99.5872 417.487 100.237 416.867C100.887 416.248 101.725 415.938 102.751 415.938C103.797 415.938 104.625 416.227 105.235 416.806C105.854 417.385 106.164 418.183 106.164 419.198C106.164 420.041 105.91 420.864 105.402 421.666C104.905 422.459 104.336 423.16 103.696 423.769C103.056 424.368 102.238 425.069 101.243 425.872H106.484V427.029H99.1556V426.039ZM108.087 421.529C108.087 419.782 108.371 418.421 108.94 417.446C109.509 416.461 110.504 415.968 111.926 415.968C113.338 415.968 114.328 416.461 114.897 417.446C115.466 418.421 115.75 419.782 115.75 421.529C115.75 423.307 115.466 424.688 114.897 425.673C114.328 426.659 113.338 427.151 111.926 427.151C110.504 427.151 109.509 426.659 108.94 425.673C108.371 424.688 108.087 423.307 108.087 421.529ZM114.379 421.529C114.379 420.646 114.318 419.899 114.196 419.29C114.085 418.67 113.846 418.172 113.48 417.797C113.125 417.421 112.607 417.233 111.926 417.233C111.235 417.233 110.707 417.421 110.342 417.797C109.986 418.172 109.747 418.67 109.626 419.29C109.514 419.899 109.458 420.646 109.458 421.529C109.458 422.444 109.514 423.21 109.626 423.83C109.747 424.45 109.986 424.947 110.342 425.323C110.707 425.699 111.235 425.887 111.926 425.887C112.607 425.887 113.125 425.699 113.48 425.323C113.846 424.947 114.085 424.45 114.196 423.83C114.318 423.21 114.379 422.444 114.379 421.529ZM117.486 426.039C118.776 425.003 119.787 424.155 120.518 423.495C121.249 422.824 121.864 422.129 122.362 421.407C122.869 420.676 123.123 419.96 123.123 419.259C123.123 418.599 122.961 418.081 122.636 417.705C122.321 417.319 121.808 417.126 121.097 417.126C120.406 417.126 119.868 417.345 119.482 417.781C119.106 418.208 118.903 418.782 118.873 419.503H117.532C117.572 418.365 117.918 417.487 118.568 416.867C119.218 416.248 120.056 415.938 121.082 415.938C122.128 415.938 122.956 416.227 123.565 416.806C124.185 417.385 124.495 418.183 124.495 419.198C124.495 420.041 124.241 420.864 123.733 421.666C123.235 422.459 122.666 423.16 122.026 423.769C121.387 424.368 120.569 425.069 119.573 425.872H124.815V427.029H117.486V426.039ZM126.052 417.4V416.136H128.916V427.151H127.514V417.4H126.052Z" fill="#808A9D"/>
<path d="M20.8351 371.499C20.8351 369.742 21.1297 368.371 21.7188 367.386C22.3181 366.39 23.344 365.893 24.7964 365.893C26.2489 365.893 27.2697 366.39 27.8588 367.386C28.4581 368.371 28.7578 369.742 28.7578 371.499C28.7578 373.277 28.4581 374.668 27.8588 375.674C27.2697 376.669 26.2489 377.167 24.7964 377.167C23.344 377.167 22.3181 376.669 21.7188 375.674C21.1297 374.668 20.8351 373.277 20.8351 371.499ZM27.0513 371.499C27.0513 370.677 26.9955 369.981 26.8838 369.412C26.7822 368.843 26.5689 368.381 26.2438 368.026C25.9188 367.66 25.4364 367.477 24.7964 367.477C24.1565 367.477 23.6741 367.66 23.349 368.026C23.024 368.381 22.8056 368.843 22.6939 369.412C22.5923 369.981 22.5415 370.677 22.5415 371.499C22.5415 372.353 22.5923 373.069 22.6939 373.648C22.7955 374.227 23.0088 374.694 23.3338 375.049C23.669 375.405 24.1565 375.583 24.7964 375.583C25.4364 375.583 25.9188 375.405 26.2438 375.049C26.579 374.694 26.7974 374.227 26.899 373.648C27.0006 373.069 27.0513 372.353 27.0513 371.499ZM32.7286 375.11L30.8851 379.315H29.7576L30.8394 375.11H32.7286ZM34.0177 371.499C34.0177 369.742 34.3122 368.371 34.9014 367.386C35.5006 366.39 36.5265 365.893 37.979 365.893C39.4315 365.893 40.4523 366.39 41.0414 367.386C41.6407 368.371 41.9403 369.742 41.9403 371.499C41.9403 373.277 41.6407 374.668 41.0414 375.674C40.4523 376.669 39.4315 377.167 37.979 377.167C36.5265 377.167 35.5006 376.669 34.9014 375.674C34.3122 374.668 34.0177 373.277 34.0177 371.499ZM40.2339 371.499C40.2339 370.677 40.178 369.981 40.0663 369.412C39.9647 368.843 39.7514 368.381 39.4264 368.026C39.1014 367.66 38.6189 367.477 37.979 367.477C37.3391 367.477 36.8566 367.66 36.5316 368.026C36.2066 368.381 35.9882 368.843 35.8765 369.412C35.7749 369.981 35.7241 370.677 35.7241 371.499C35.7241 372.353 35.7749 373.069 35.8765 373.648C35.978 374.227 36.1913 374.694 36.5164 375.049C36.8515 375.405 37.3391 375.583 37.979 375.583C38.6189 375.583 39.1014 375.405 39.4264 375.049C39.7616 374.694 39.98 374.227 40.0815 373.648C40.1831 373.069 40.2339 372.353 40.2339 371.499ZM43.7781 371.499C43.7781 369.742 44.0727 368.371 44.6618 367.386C45.2611 366.39 46.287 365.893 47.7394 365.893C49.1919 365.893 50.2127 366.39 50.8018 367.386C51.4011 368.371 51.7008 369.742 51.7008 371.499C51.7008 373.277 51.4011 374.668 50.8018 375.674C50.2127 376.669 49.1919 377.167 47.7394 377.167C46.287 377.167 45.2611 376.669 44.6618 375.674C44.0727 374.668 43.7781 373.277 43.7781 371.499ZM49.9943 371.499C49.9943 370.677 49.9385 369.981 49.8267 369.412C49.7252 368.843 49.5119 368.381 49.1868 368.026C48.8618 367.66 48.3793 367.477 47.7394 367.477C47.0995 367.477 46.6171 367.66 46.292 368.026C45.967 368.381 45.7486 368.843 45.6369 369.412C45.5353 369.981 45.4845 370.677 45.4845 371.499C45.4845 372.353 45.5353 373.069 45.6369 373.648C45.7385 374.227 45.9518 374.694 46.2768 375.049C46.612 375.405 47.0995 375.583 47.7394 375.583C48.3793 375.583 48.8618 375.405 49.1868 375.049C49.522 374.694 49.7404 374.227 49.842 373.648C49.9436 373.069 49.9943 372.353 49.9943 371.499Z" fill="#A0A8B7"/>
<path d="M22.1504 254.766C23.1255 253.923 23.8924 253.232 24.451 252.694C25.0198 252.145 25.4922 251.577 25.868 250.987C26.2438 250.398 26.4317 249.809 26.4317 249.22C26.4317 248.611 26.2844 248.133 25.9899 247.788C25.7055 247.443 25.2535 247.27 24.6339 247.27C24.0346 247.27 23.5674 247.463 23.2322 247.849C22.9071 248.225 22.7345 248.733 22.7142 249.372H21.0382C21.0687 248.214 21.414 247.331 22.0743 246.721C22.7446 246.102 23.5928 245.792 24.6186 245.792C25.7258 245.792 26.5891 246.097 27.2087 246.706C27.8385 247.316 28.1533 248.128 28.1533 249.144C28.1533 249.875 27.9654 250.581 27.5896 251.262C27.224 251.932 26.7821 252.536 26.2641 253.075C25.7562 253.603 25.1062 254.217 24.3139 254.918L23.6283 255.528H28.4581V256.975H21.0535V255.711L22.1504 254.766ZM29.9839 251.429C29.9839 249.672 30.2785 248.301 30.8676 247.316C31.4669 246.32 32.4927 245.822 33.9452 245.822C35.3977 245.822 36.4185 246.32 37.0076 247.316C37.6069 248.301 37.9065 249.672 37.9065 251.429C37.9065 253.207 37.6069 254.598 37.0076 255.604C36.4185 256.599 35.3977 257.097 33.9452 257.097C32.4927 257.097 31.4669 256.599 30.8676 255.604C30.2785 254.598 29.9839 253.207 29.9839 251.429ZM36.2001 251.429C36.2001 250.607 36.1443 249.911 36.0325 249.342C35.9309 248.773 35.7176 248.311 35.3926 247.955C35.0676 247.59 34.5851 247.407 33.9452 247.407C33.3053 247.407 32.8228 247.59 32.4978 247.955C32.1728 248.311 31.9544 248.773 31.8427 249.342C31.7411 249.911 31.6903 250.607 31.6903 251.429C31.6903 252.282 31.7411 252.999 31.8427 253.577C31.9442 254.156 32.1575 254.624 32.4826 254.979C32.8178 255.335 33.3053 255.512 33.9452 255.512C34.5851 255.512 35.0676 255.335 35.3926 254.979C35.7278 254.624 35.9462 254.156 36.0478 253.577C36.1493 252.999 36.2001 252.282 36.2001 251.429ZM39.7443 251.429C39.7443 249.672 40.0389 248.301 40.628 247.316C41.2273 246.32 42.2532 245.822 43.7057 245.822C45.1581 245.822 46.1789 246.32 46.7681 247.316C47.3673 248.301 47.667 249.672 47.667 251.429C47.667 253.207 47.3673 254.598 46.7681 255.604C46.1789 256.599 45.1581 257.097 43.7057 257.097C42.2532 257.097 41.2273 256.599 40.628 255.604C40.0389 254.598 39.7443 253.207 39.7443 251.429ZM45.9606 251.429C45.9606 250.607 45.9047 249.911 45.793 249.342C45.6914 248.773 45.4781 248.311 45.1531 247.955C44.828 247.59 44.3456 247.407 43.7057 247.407C43.0658 247.407 42.5833 247.59 42.2583 247.955C41.9332 248.311 41.7148 248.773 41.6031 249.342C41.5015 249.911 41.4508 250.607 41.4508 251.429C41.4508 252.282 41.5015 252.999 41.6031 253.577C41.7047 254.156 41.918 254.624 42.243 254.979C42.5782 255.335 43.0658 255.512 43.7057 255.512C44.3456 255.512 44.828 255.335 45.1531 254.979C45.4882 254.624 45.7066 254.156 45.8082 253.577C45.9098 252.999 45.9606 252.282 45.9606 251.429ZM53.4625 251.429C53.4625 249.672 53.7571 248.301 54.3462 247.316C54.9455 246.32 55.9714 245.822 57.4238 245.822C58.8763 245.822 59.8971 246.32 60.4862 247.316C61.0855 248.301 61.3852 249.672 61.3852 251.429C61.3852 253.207 61.0855 254.598 60.4862 255.604C59.8971 256.599 58.8763 257.097 57.4238 257.097C55.9714 257.097 54.9455 256.599 54.3462 255.604C53.7571 254.598 53.4625 253.207 53.4625 251.429ZM59.6787 251.429C59.6787 250.607 59.6229 249.911 59.5111 249.342C59.4096 248.773 59.1963 248.311 58.8712 247.955C58.5462 247.59 58.0637 247.407 57.4238 247.407C56.7839 247.407 56.3015 247.59 55.9764 247.955C55.6514 248.311 55.433 248.773 55.3213 249.342C55.2197 249.911 55.1689 250.607 55.1689 251.429C55.1689 252.282 55.2197 252.999 55.3213 253.577C55.4229 254.156 55.6362 254.624 55.9612 254.979C56.2964 255.335 56.7839 255.512 57.4238 255.512C58.0637 255.512 58.5462 255.335 58.8712 254.979C59.2064 254.624 59.4248 254.156 59.5264 253.577C59.628 252.999 59.6787 252.282 59.6787 251.429ZM63.223 251.429C63.223 249.672 63.5175 248.301 64.1067 247.316C64.7059 246.32 65.7318 245.822 67.1843 245.822C68.6368 245.822 69.6576 246.32 70.2467 247.316C70.846 248.301 71.1456 249.672 71.1456 251.429C71.1456 253.207 70.846 254.598 70.2467 255.604C69.6576 256.599 68.6368 257.097 67.1843 257.097C65.7318 257.097 64.7059 256.599 64.1067 255.604C63.5175 254.598 63.223 253.207 63.223 251.429ZM69.4392 251.429C69.4392 250.607 69.3833 249.911 69.2716 249.342C69.17 248.773 68.9567 248.311 68.6317 247.955C68.3067 247.59 67.8242 247.407 67.1843 247.407C66.5444 247.407 66.0619 247.59 65.7369 247.955C65.4119 248.311 65.1935 248.773 65.0817 249.342C64.9802 249.911 64.9294 250.607 64.9294 251.429C64.9294 252.282 64.9802 252.999 65.0817 253.577C65.1833 254.156 65.3966 254.624 65.7216 254.979C66.0568 255.335 66.5444 255.512 67.1843 255.512C67.8242 255.512 68.3067 255.335 68.6317 254.979C68.9669 254.624 69.1853 254.156 69.2868 253.577C69.3884 252.999 69.4392 252.282 69.4392 251.429ZM72.9834 251.429C72.9834 249.672 73.278 248.301 73.8671 247.316C74.4664 246.32 75.4923 245.822 76.9447 245.822C78.3972 245.822 79.418 246.32 80.0071 247.316C80.6064 248.301 80.906 249.672 80.906 251.429C80.906 253.207 80.6064 254.598 80.0071 255.604C79.418 256.599 78.3972 257.097 76.9447 257.097C75.4923 257.097 74.4664 256.599 73.8671 255.604C73.278 254.598 72.9834 253.207 72.9834 251.429ZM79.1996 251.429C79.1996 250.607 79.1438 249.911 79.032 249.342C78.9305 248.773 78.7172 248.311 78.3921 247.955C78.0671 247.59 77.5846 247.407 76.9447 247.407C76.3048 247.407 75.8224 247.59 75.4973 247.955C75.1723 248.311 74.9539 248.773 74.8422 249.342C74.7406 249.911 74.6898 250.607 74.6898 251.429C74.6898 252.282 74.7406 252.999 74.8422 253.577C74.9438 254.156 75.1571 254.624 75.4821 254.979C75.8173 255.335 76.3048 255.512 76.9447 255.512C77.5846 255.512 78.0671 255.335 78.3921 254.979C78.7273 254.624 78.9457 254.156 79.0473 253.577C79.1488 252.999 79.1996 252.282 79.1996 251.429ZM84.8769 255.04L83.0333 259.245H81.9059L82.9876 255.04H84.8769ZM86.166 251.429C86.166 249.672 86.4605 248.301 87.0496 247.316C87.6489 246.32 88.6748 245.822 90.1273 245.822C91.5798 245.822 92.6006 246.32 93.1897 247.316C93.789 248.301 94.0886 249.672 94.0886 251.429C94.0886 253.207 93.789 254.598 93.1897 255.604C92.6006 256.599 91.5798 257.097 90.1273 257.097C88.6748 257.097 87.6489 256.599 87.0496 255.604C86.4605 254.598 86.166 253.207 86.166 251.429ZM92.3822 251.429C92.3822 250.607 92.3263 249.911 92.2146 249.342C92.113 248.773 91.8997 248.311 91.5747 247.955C91.2497 247.59 90.7672 247.407 90.1273 247.407C89.4874 247.407 89.0049 247.59 88.6799 247.955C88.3549 248.311 88.1365 248.773 88.0247 249.342C87.9232 249.911 87.8724 250.607 87.8724 251.429C87.8724 252.282 87.9232 252.999 88.0247 253.577C88.1263 254.156 88.3396 254.624 88.6646 254.979C88.9998 255.335 89.4874 255.512 90.1273 255.512C90.7672 255.512 91.2497 255.335 91.5747 254.979C91.9099 254.624 92.1283 254.156 92.2298 253.577C92.3314 252.999 92.3822 252.282 92.3822 251.429ZM95.9264 251.429C95.9264 249.672 96.221 248.301 96.8101 247.316C97.4094 246.32 98.4352 245.822 99.8877 245.822C101.34 245.822 102.361 246.32 102.95 247.316C103.549 248.301 103.849 249.672 103.849 251.429C103.849 253.207 103.549 254.598 102.95 255.604C102.361 256.599 101.34 257.097 99.8877 257.097C98.4352 257.097 97.4094 256.599 96.8101 255.604C96.221 254.598 95.9264 253.207 95.9264 251.429ZM102.143 251.429C102.143 250.607 102.087 249.911 101.975 249.342C101.873 248.773 101.66 248.311 101.335 247.955C101.01 247.59 100.528 247.407 99.8877 247.407C99.2478 247.407 98.7654 247.59 98.4403 247.955C98.1153 248.311 97.8969 248.773 97.7852 249.342C97.6836 249.911 97.6328 250.607 97.6328 251.429C97.6328 252.282 97.6836 252.999 97.7852 253.577C97.8868 254.156 98.1001 254.624 98.4251 254.979C98.7603 255.335 99.2478 255.512 99.8877 255.512C100.528 255.512 101.01 255.335 101.335 254.979C101.67 254.624 101.889 254.156 101.99 253.577C102.092 252.999 102.143 252.282 102.143 251.429Z" fill="#A0A8B7"/>
<path d="M21.9216 133.524V132.214L27.0409 124.87H29.1434V132.016H30.5603V133.524H29.1434V135.84H27.437V133.524H21.9216ZM27.5132 126.638L23.9175 132.016H27.5132V126.638ZM31.9995 130.142C31.9995 128.385 32.2941 127.013 32.8832 126.028C33.4825 125.033 34.5084 124.535 35.9608 124.535C37.4133 124.535 38.4341 125.033 39.0232 126.028C39.6225 127.013 39.9221 128.385 39.9221 130.142C39.9221 131.919 39.6225 133.311 39.0232 134.317C38.4341 135.312 37.4133 135.81 35.9608 135.81C34.5084 135.81 33.4825 135.312 32.8832 134.317C32.2941 133.311 31.9995 131.919 31.9995 130.142ZM38.2157 130.142C38.2157 129.319 38.1599 128.623 38.0481 128.055C37.9466 127.486 37.7333 127.024 37.4082 126.668C37.0832 126.302 36.6007 126.12 35.9608 126.12C35.3209 126.12 34.8385 126.302 34.5134 126.668C34.1884 127.024 33.97 127.486 33.8583 128.055C33.7567 128.623 33.7059 129.319 33.7059 130.142C33.7059 130.995 33.7567 131.711 33.8583 132.29C33.9599 132.869 34.1732 133.336 34.4982 133.692C34.8334 134.047 35.3209 134.225 35.9608 134.225C36.6007 134.225 37.0832 134.047 37.4082 133.692C37.7434 133.336 37.9618 132.869 38.0634 132.29C38.1649 131.711 38.2157 130.995 38.2157 130.142ZM41.76 130.142C41.76 128.385 42.0545 127.013 42.6436 126.028C43.2429 125.033 44.2688 124.535 45.7213 124.535C47.1738 124.535 48.1946 125.033 48.7837 126.028C49.383 127.013 49.6826 128.385 49.6826 130.142C49.6826 131.919 49.383 133.311 48.7837 134.317C48.1946 135.312 47.1738 135.81 45.7213 135.81C44.2688 135.81 43.2429 135.312 42.6436 134.317C42.0545 133.311 41.76 131.919 41.76 130.142ZM47.9762 130.142C47.9762 129.319 47.9203 128.623 47.8086 128.055C47.707 127.486 47.4937 127.024 47.1687 126.668C46.8436 126.302 46.3612 126.12 45.7213 126.12C45.0814 126.12 44.5989 126.302 44.2739 126.668C43.9488 127.024 43.7305 127.486 43.6187 128.055C43.5172 128.623 43.4664 129.319 43.4664 130.142C43.4664 130.995 43.5172 131.711 43.6187 132.29C43.7203 132.869 43.9336 133.336 44.2586 133.692C44.5938 134.047 45.0814 134.225 45.7213 134.225C46.3612 134.225 46.8436 134.047 47.1687 133.692C47.5039 133.336 47.7222 132.869 47.8238 132.29C47.9254 131.711 47.9762 130.995 47.9762 130.142ZM55.4782 130.142C55.4782 128.385 55.7727 127.013 56.3618 126.028C56.9611 125.033 57.987 124.535 59.4395 124.535C60.8919 124.535 61.9127 125.033 62.5019 126.028C63.1011 127.013 63.4008 128.385 63.4008 130.142C63.4008 131.919 63.1011 133.311 62.5019 134.317C61.9127 135.312 60.8919 135.81 59.4395 135.81C57.987 135.81 56.9611 135.312 56.3618 134.317C55.7727 133.311 55.4782 131.919 55.4782 130.142ZM61.6944 130.142C61.6944 129.319 61.6385 128.623 61.5268 128.055C61.4252 127.486 61.2119 127.024 60.8869 126.668C60.5618 126.302 60.0794 126.12 59.4395 126.12C58.7996 126.12 58.3171 126.302 57.9921 126.668C57.667 127.024 57.4487 127.486 57.3369 128.055C57.2353 128.623 57.1846 129.319 57.1846 130.142C57.1846 130.995 57.2353 131.711 57.3369 132.29C57.4385 132.869 57.6518 133.336 57.9768 133.692C58.312 134.047 58.7996 134.225 59.4395 134.225C60.0794 134.225 60.5618 134.047 60.8869 133.692C61.2221 133.336 61.4404 132.869 61.542 132.29C61.6436 131.711 61.6944 130.995 61.6944 130.142ZM65.2386 130.142C65.2386 128.385 65.5332 127.013 66.1223 126.028C66.7215 125.033 67.7474 124.535 69.1999 124.535C70.6524 124.535 71.6732 125.033 72.2623 126.028C72.8616 127.013 73.1612 128.385 73.1612 130.142C73.1612 131.919 72.8616 133.311 72.2623 134.317C71.6732 135.312 70.6524 135.81 69.1999 135.81C67.7474 135.81 66.7215 135.312 66.1223 134.317C65.5332 133.311 65.2386 131.919 65.2386 130.142ZM71.4548 130.142C71.4548 129.319 71.3989 128.623 71.2872 128.055C71.1856 127.486 70.9723 127.024 70.6473 126.668C70.3223 126.302 69.8398 126.12 69.1999 126.12C68.56 126.12 68.0775 126.302 67.7525 126.668C67.4275 127.024 67.2091 127.486 67.0974 128.055C66.9958 128.623 66.945 129.319 66.945 130.142C66.945 130.995 66.9958 131.711 67.0974 132.29C67.1989 132.869 67.4122 133.336 67.7373 133.692C68.0725 134.047 68.56 134.225 69.1999 134.225C69.8398 134.225 70.3223 134.047 70.6473 133.692C70.9825 133.336 71.2009 132.869 71.3025 132.29C71.404 131.711 71.4548 130.995 71.4548 130.142ZM74.999 130.142C74.999 128.385 75.2936 127.013 75.8827 126.028C76.482 125.033 77.5079 124.535 78.9603 124.535C80.4128 124.535 81.4336 125.033 82.0227 126.028C82.622 127.013 82.9217 128.385 82.9217 130.142C82.9217 131.919 82.622 133.311 82.0227 134.317C81.4336 135.312 80.4128 135.81 78.9603 135.81C77.5079 135.81 76.482 135.312 75.8827 134.317C75.2936 133.311 74.999 131.919 74.999 130.142ZM81.2152 130.142C81.2152 129.319 81.1594 128.623 81.0477 128.055C80.9461 127.486 80.7328 127.024 80.4078 126.668C80.0827 126.302 79.6003 126.12 78.9603 126.12C78.3204 126.12 77.838 126.302 77.5129 126.668C77.1879 127.024 76.9695 127.486 76.8578 128.055C76.7562 128.623 76.7054 129.319 76.7054 130.142C76.7054 130.995 76.7562 131.711 76.8578 132.29C76.9594 132.869 77.1727 133.336 77.4977 133.692C77.8329 134.047 78.3204 134.225 78.9603 134.225C79.6003 134.225 80.0827 134.047 80.4078 133.692C80.7429 133.336 80.9613 132.869 81.0629 132.29C81.1645 131.711 81.2152 130.995 81.2152 130.142ZM86.8925 133.753L85.049 137.958H83.9215L85.0033 133.753H86.8925ZM88.1816 130.142C88.1816 128.385 88.4761 127.013 89.0653 126.028C89.6645 125.033 90.6904 124.535 92.1429 124.535C93.5954 124.535 94.6162 125.033 95.2053 126.028C95.8046 127.013 96.1042 128.385 96.1042 130.142C96.1042 131.919 95.8046 133.311 95.2053 134.317C94.6162 135.312 93.5954 135.81 92.1429 135.81C90.6904 135.81 89.6645 135.312 89.0653 134.317C88.4761 133.311 88.1816 131.919 88.1816 130.142ZM94.3978 130.142C94.3978 129.319 94.3419 128.623 94.2302 128.055C94.1286 127.486 93.9153 127.024 93.5903 126.668C93.2653 126.302 92.7828 126.12 92.1429 126.12C91.503 126.12 91.0205 126.302 90.6955 126.668C90.3705 127.024 90.1521 127.486 90.0404 128.055C89.9388 128.623 89.888 129.319 89.888 130.142C89.888 130.995 89.9388 131.711 90.0404 132.29C90.1419 132.869 90.3552 133.336 90.6803 133.692C91.0155 134.047 91.503 134.225 92.1429 134.225C92.7828 134.225 93.2653 134.047 93.5903 133.692C93.9255 133.336 94.1439 132.869 94.2454 132.29C94.347 131.711 94.3978 130.995 94.3978 130.142ZM97.942 130.142C97.942 128.385 98.2366 127.013 98.8257 126.028C99.425 125.033 100.451 124.535 101.903 124.535C103.356 124.535 104.377 125.033 104.966 126.028C105.565 127.013 105.865 128.385 105.865 130.142C105.865 131.919 105.565 133.311 104.966 134.317C104.377 135.312 103.356 135.81 101.903 135.81C100.451 135.81 99.425 135.312 98.8257 134.317C98.2366 133.311 97.942 131.919 97.942 130.142ZM104.158 130.142C104.158 129.319 104.102 128.623 103.991 128.055C103.889 127.486 103.676 127.024 103.351 126.668C103.026 126.302 102.543 126.12 101.903 126.12C101.263 126.12 100.781 126.302 100.456 126.668C100.131 127.024 99.9125 127.486 99.8008 128.055C99.6992 128.623 99.6484 129.319 99.6484 130.142C99.6484 130.995 99.6992 131.711 99.8008 132.29C99.9024 132.869 100.116 133.336 100.441 133.692C100.776 134.047 101.263 134.225 101.903 134.225C102.543 134.225 103.026 134.047 103.351 133.692C103.686 133.336 103.904 132.869 104.006 132.29C104.107 131.711 104.158 130.995 104.158 130.142Z" fill="#A0A8B7"/>
<path d="M27.181 6.55901C27.0693 6.09178 26.8661 5.74135 26.5716 5.50774C26.277 5.27412 25.8657 5.15731 25.3375 5.15731C24.5351 5.15731 23.9358 5.46711 23.5397 6.0867C23.1435 6.69613 22.9353 7.71185 22.915 9.13386C23.1791 8.68694 23.5651 8.3416 24.0729 8.09783C24.5808 7.85405 25.1293 7.73217 25.7184 7.73217C26.3888 7.73217 26.9779 7.87945 27.4857 8.174C28.0038 8.45841 28.405 8.87485 28.6894 9.42334C28.9839 9.97183 29.1312 10.627 29.1312 11.3888C29.1312 12.0998 28.989 12.7346 28.7046 13.2932C28.4304 13.8519 28.019 14.2937 27.4705 14.6188C26.922 14.9336 26.2618 15.0911 25.4898 15.0911C24.4437 15.0911 23.6209 14.8625 23.0216 14.4055C22.4325 13.9382 22.0161 13.2831 21.7723 12.44C21.5387 11.597 21.4219 10.5457 21.4219 9.28622C21.4219 5.56868 22.7322 3.70991 25.3527 3.70991C26.3684 3.70991 27.1658 3.98416 27.7447 4.53265C28.3339 5.08113 28.6792 5.75659 28.7808 6.55901H27.181ZM25.3375 9.1948C24.7179 9.1948 24.1897 9.38271 23.753 9.75853C23.3264 10.1242 23.1131 10.6574 23.1131 11.3583C23.1131 12.0591 23.3111 12.6178 23.7073 13.0342C24.1135 13.4405 24.6773 13.6437 25.3984 13.6437C26.0383 13.6437 26.5411 13.4456 26.9068 13.0495C27.2826 12.6533 27.4705 12.1252 27.4705 11.4649C27.4705 10.7743 27.2877 10.2258 26.922 9.81947C26.5665 9.40303 26.0383 9.1948 25.3375 9.1948ZM30.9839 9.39287C30.9839 7.63567 31.2785 6.26445 31.8676 5.2792C32.4669 4.28379 33.4927 3.78609 34.9452 3.78609C36.3977 3.78609 37.4185 4.28379 38.0076 5.2792C38.6069 6.26445 38.9065 7.63567 38.9065 9.39287C38.9065 11.1704 38.6069 12.5619 38.0076 13.5675C37.4185 14.5629 36.3977 15.0606 34.9452 15.0606C33.4927 15.0606 32.4669 14.5629 31.8676 13.5675C31.2785 12.5619 30.9839 11.1704 30.9839 9.39287ZM37.2001 9.39287C37.2001 8.57014 37.1443 7.87437 37.0325 7.30556C36.931 6.73676 36.7176 6.27461 36.3926 5.9191C36.0676 5.55344 35.5851 5.37061 34.9452 5.37061C34.3053 5.37061 33.8228 5.55344 33.4978 5.9191C33.1728 6.27461 32.9544 6.73676 32.8427 7.30556C32.7411 7.87437 32.6903 8.57014 32.6903 9.39287C32.6903 10.2461 32.7411 10.9622 32.8427 11.5411C32.9442 12.1201 33.1575 12.5873 33.4826 12.9428C33.8178 13.2983 34.3053 13.4761 34.9452 13.4761C35.5851 13.4761 36.0676 13.2983 36.3926 12.9428C36.7278 12.5873 36.9462 12.1201 37.0478 11.5411C37.1493 10.9622 37.2001 10.2461 37.2001 9.39287ZM40.7443 9.39287C40.7443 7.63567 41.0389 6.26445 41.628 5.2792C42.2273 4.28379 43.2532 3.78609 44.7057 3.78609C46.1581 3.78609 47.1789 4.28379 47.7681 5.2792C48.3673 6.26445 48.667 7.63567 48.667 9.39287C48.667 11.1704 48.3673 12.5619 47.7681 13.5675C47.1789 14.5629 46.1581 15.0606 44.7057 15.0606C43.2532 15.0606 42.2273 14.5629 41.628 13.5675C41.0389 12.5619 40.7443 11.1704 40.7443 9.39287ZM46.9606 9.39287C46.9606 8.57014 46.9047 7.87437 46.793 7.30556C46.6914 6.73676 46.4781 6.27461 46.1531 5.9191C45.828 5.55344 45.3456 5.37061 44.7057 5.37061C44.0658 5.37061 43.5833 5.55344 43.2583 5.9191C42.9332 6.27461 42.7148 6.73676 42.6031 7.30556C42.5015 7.87437 42.4508 8.57014 42.4508 9.39287C42.4508 10.2461 42.5015 10.9622 42.6031 11.5411C42.7047 12.1201 42.918 12.5873 43.243 12.9428C43.5782 13.2983 44.0658 13.4761 44.7057 13.4761C45.3456 13.4761 45.828 13.2983 46.1531 12.9428C46.4883 12.5873 46.7066 12.1201 46.8082 11.5411C46.9098 10.9622 46.9606 10.2461 46.9606 9.39287ZM54.4625 9.39287C54.4625 7.63567 54.7571 6.26445 55.3462 5.2792C55.9455 4.28379 56.9714 3.78609 58.4238 3.78609C59.8763 3.78609 60.8971 4.28379 61.4862 5.2792C62.0855 6.26445 62.3852 7.63567 62.3852 9.39287C62.3852 11.1704 62.0855 12.5619 61.4862 13.5675C60.8971 14.5629 59.8763 15.0606 58.4238 15.0606C56.9714 15.0606 55.9455 14.5629 55.3462 13.5675C54.7571 12.5619 54.4625 11.1704 54.4625 9.39287ZM60.6787 9.39287C60.6787 8.57014 60.6229 7.87437 60.5112 7.30556C60.4096 6.73676 60.1963 6.27461 59.8712 5.9191C59.5462 5.55344 59.0638 5.37061 58.4238 5.37061C57.7839 5.37061 57.3015 5.55344 56.9764 5.9191C56.6514 6.27461 56.433 6.73676 56.3213 7.30556C56.2197 7.87437 56.1689 8.57014 56.1689 9.39287C56.1689 10.2461 56.2197 10.9622 56.3213 11.5411C56.4229 12.1201 56.6362 12.5873 56.9612 12.9428C57.2964 13.2983 57.7839 13.4761 58.4238 13.4761C59.0638 13.4761 59.5462 13.2983 59.8712 12.9428C60.2064 12.5873 60.4248 12.1201 60.5264 11.5411C60.628 10.9622 60.6787 10.2461 60.6787 9.39287ZM64.223 9.39287C64.223 7.63567 64.5175 6.26445 65.1067 5.2792C65.7059 4.28379 66.7318 3.78609 68.1843 3.78609C69.6368 3.78609 70.6576 4.28379 71.2467 5.2792C71.846 6.26445 72.1456 7.63567 72.1456 9.39287C72.1456 11.1704 71.846 12.5619 71.2467 13.5675C70.6576 14.5629 69.6368 15.0606 68.1843 15.0606C66.7318 15.0606 65.7059 14.5629 65.1067 13.5675C64.5175 12.5619 64.223 11.1704 64.223 9.39287ZM70.4392 9.39287C70.4392 8.57014 70.3833 7.87437 70.2716 7.30556C70.17 6.73676 69.9567 6.27461 69.6317 5.9191C69.3067 5.55344 68.8242 5.37061 68.1843 5.37061C67.5444 5.37061 67.0619 5.55344 66.7369 5.9191C66.4119 6.27461 66.1935 6.73676 66.0817 7.30556C65.9802 7.87437 65.9294 8.57014 65.9294 9.39287C65.9294 10.2461 65.9802 10.9622 66.0817 11.5411C66.1833 12.1201 66.3966 12.5873 66.7216 12.9428C67.0568 13.2983 67.5444 13.4761 68.1843 13.4761C68.8242 13.4761 69.3067 13.2983 69.6317 12.9428C69.9669 12.5873 70.1853 12.1201 70.2868 11.5411C70.3884 10.9622 70.4392 10.2461 70.4392 9.39287ZM73.9834 9.39287C73.9834 7.63567 74.278 6.26445 74.8671 5.2792C75.4664 4.28379 76.4923 3.78609 77.9447 3.78609C79.3972 3.78609 80.418 4.28379 81.0071 5.2792C81.6064 6.26445 81.906 7.63567 81.906 9.39287C81.906 11.1704 81.6064 12.5619 81.0071 13.5675C80.418 14.5629 79.3972 15.0606 77.9447 15.0606C76.4923 15.0606 75.4664 14.5629 74.8671 13.5675C74.278 12.5619 73.9834 11.1704 73.9834 9.39287ZM80.1996 9.39287C80.1996 8.57014 80.1438 7.87437 80.032 7.30556C79.9305 6.73676 79.7172 6.27461 79.3921 5.9191C79.0671 5.55344 78.5846 5.37061 77.9447 5.37061C77.3048 5.37061 76.8224 5.55344 76.4973 5.9191C76.1723 6.27461 75.9539 6.73676 75.8422 7.30556C75.7406 7.87437 75.6898 8.57014 75.6898 9.39287C75.6898 10.2461 75.7406 10.9622 75.8422 11.5411C75.9438 12.1201 76.1571 12.5873 76.4821 12.9428C76.8173 13.2983 77.3048 13.4761 77.9447 13.4761C78.5846 13.4761 79.0671 13.2983 79.3921 12.9428C79.7273 12.5873 79.9457 12.1201 80.0473 11.5411C80.1488 10.9622 80.1996 10.2461 80.1996 9.39287ZM85.8769 13.0038L84.0333 17.2088H82.9059L83.9876 13.0038H85.8769ZM87.166 9.39287C87.166 7.63567 87.4605 6.26445 88.0496 5.2792C88.6489 4.28379 89.6748 3.78609 91.1273 3.78609C92.5798 3.78609 93.6006 4.28379 94.1897 5.2792C94.789 6.26445 95.0886 7.63567 95.0886 9.39287C95.0886 11.1704 94.789 12.5619 94.1897 13.5675C93.6006 14.5629 92.5798 15.0606 91.1273 15.0606C89.6748 15.0606 88.6489 14.5629 88.0496 13.5675C87.4605 12.5619 87.166 11.1704 87.166 9.39287ZM93.3822 9.39287C93.3822 8.57014 93.3263 7.87437 93.2146 7.30556C93.113 6.73676 92.8997 6.27461 92.5747 5.9191C92.2497 5.55344 91.7672 5.37061 91.1273 5.37061C90.4874 5.37061 90.0049 5.55344 89.6799 5.9191C89.3549 6.27461 89.1365 6.73676 89.0247 7.30556C88.9232 7.87437 88.8724 8.57014 88.8724 9.39287C88.8724 10.2461 88.9232 10.9622 89.0247 11.5411C89.1263 12.1201 89.3396 12.5873 89.6646 12.9428C89.9998 13.2983 90.4874 13.4761 91.1273 13.4761C91.7672 13.4761 92.2497 13.2983 92.5747 12.9428C92.9099 12.5873 93.1283 12.1201 93.2298 11.5411C93.3314 10.9622 93.3822 10.2461 93.3822 9.39287ZM96.9264 9.39287C96.9264 7.63567 97.221 6.26445 97.8101 5.2792C98.4094 4.28379 99.4352 3.78609 100.888 3.78609C102.34 3.78609 103.361 4.28379 103.95 5.2792C104.549 6.26445 104.849 7.63567 104.849 9.39287C104.849 11.1704 104.549 12.5619 103.95 13.5675C103.361 14.5629 102.34 15.0606 100.888 15.0606C99.4352 15.0606 98.4094 14.5629 97.8101 13.5675C97.221 12.5619 96.9264 11.1704 96.9264 9.39287ZM103.143 9.39287C103.143 8.57014 103.087 7.87437 102.975 7.30556C102.873 6.73676 102.66 6.27461 102.335 5.9191C102.01 5.55344 101.528 5.37061 100.888 5.37061C100.248 5.37061 99.7654 5.55344 99.4403 5.9191C99.1153 6.27461 98.8969 6.73676 98.7852 7.30556C98.6836 7.87437 98.6328 8.57014 98.6328 9.39287C98.6328 10.2461 98.6836 10.9622 98.7852 11.5411C98.8868 12.1201 99.1001 12.5873 99.4251 12.9428C99.7603 13.2983 100.248 13.4761 100.888 13.4761C101.528 13.4761 102.01 13.2983 102.335 12.9428C102.67 12.5873 102.889 12.1201 102.99 11.5411C103.092 10.9622 103.143 10.2461 103.143 9.39287Z" fill="#A0A8B7"/>
<path d="M194.344 404.698V403.647L199.692 396.243H201.353V403.495H202.876V404.698H201.353V407.151H199.981V404.698H194.344ZM200.042 397.69L195.944 403.495H200.042V397.69ZM213.503 398.985H214.966L211.477 402.916L215.255 407.151H213.701L210.014 403.007V407.151H208.673V398.985H210.014V402.946L213.503 398.985ZM223.304 401.042C223.304 401.55 223.152 401.946 222.847 402.23C222.543 402.515 222.151 402.708 221.674 402.809V402.87C222.182 402.941 222.624 403.124 223 403.419C223.375 403.703 223.563 404.15 223.563 404.759C223.563 405.105 223.497 405.425 223.365 405.719C223.243 406.014 223.05 406.268 222.786 406.481C222.522 406.694 222.182 406.862 221.766 406.984C221.349 407.096 220.846 407.151 220.257 407.151H216.738V398.985H220.242C220.821 398.985 221.339 399.051 221.796 399.183C222.263 399.305 222.629 399.518 222.893 399.823C223.167 400.117 223.304 400.524 223.304 401.042ZM222.177 404.759C222.177 404.292 221.999 403.957 221.644 403.754C221.288 403.551 220.765 403.449 220.074 403.449H218.078V406.07H220.105C220.775 406.07 221.288 405.973 221.644 405.78C221.999 405.577 222.177 405.237 222.177 404.759ZM221.948 401.209C221.948 400.823 221.806 400.544 221.522 400.371C221.248 400.189 220.796 400.097 220.166 400.097H218.078V402.337H219.922C220.582 402.337 221.085 402.245 221.43 402.063C221.776 401.88 221.948 401.595 221.948 401.209ZM228.609 398.848C229.604 398.848 230.341 399.066 230.818 399.503C231.296 399.94 231.534 400.636 231.534 401.59V407.151H230.559L230.3 405.993H230.239C230.006 406.288 229.762 406.537 229.508 406.74C229.264 406.933 228.98 407.075 228.655 407.167C228.34 407.258 227.954 407.304 227.497 407.304C227.009 407.304 226.567 407.217 226.171 407.045C225.785 406.872 225.481 406.608 225.257 406.252C225.034 405.887 224.922 405.43 224.922 404.881C224.922 404.069 225.242 403.444 225.882 403.007C226.522 402.56 227.507 402.317 228.838 402.276L230.224 402.23V401.743C230.224 401.062 230.077 400.59 229.782 400.326C229.488 400.062 229.071 399.93 228.533 399.93C228.106 399.93 227.7 399.996 227.314 400.128C226.928 400.25 226.567 400.392 226.232 400.554L225.821 399.549C226.176 399.356 226.598 399.193 227.085 399.061C227.573 398.919 228.081 398.848 228.609 398.848ZM229.005 403.205C227.989 403.246 227.284 403.408 226.887 403.693C226.501 403.977 226.308 404.378 226.308 404.896C226.308 405.354 226.446 405.689 226.72 405.902C227.004 406.115 227.365 406.222 227.802 406.222C228.492 406.222 229.066 406.034 229.523 405.658C229.98 405.272 230.209 404.683 230.209 403.891V403.16L229.005 403.205ZM237.942 398.833C238.947 398.833 239.755 399.183 240.364 399.884C240.984 400.585 241.294 401.641 241.294 403.053C241.294 403.977 241.151 404.759 240.867 405.399C240.593 406.029 240.202 406.506 239.694 406.831C239.196 407.146 238.607 407.304 237.926 407.304C237.51 407.304 237.139 407.248 236.814 407.136C236.489 407.024 236.21 406.882 235.976 406.71C235.753 406.527 235.56 406.329 235.397 406.115H235.306C235.326 406.288 235.346 406.506 235.367 406.77C235.387 407.035 235.397 407.263 235.397 407.456V410.808H234.057V398.985H235.154L235.336 400.097H235.397C235.56 399.864 235.753 399.65 235.976 399.457C236.21 399.264 236.484 399.112 236.799 399C237.124 398.888 237.505 398.833 237.942 398.833ZM237.698 399.96C237.149 399.96 236.708 400.067 236.372 400.28C236.037 400.483 235.793 400.793 235.641 401.209C235.489 401.626 235.407 402.154 235.397 402.794V403.053C235.397 403.723 235.468 404.292 235.611 404.759C235.753 405.227 235.991 405.582 236.327 405.826C236.672 406.07 237.139 406.192 237.728 406.192C238.226 406.192 238.632 406.054 238.947 405.78C239.272 405.506 239.511 405.135 239.663 404.668C239.826 404.191 239.907 403.647 239.907 403.038C239.907 402.103 239.724 401.357 239.359 400.798C239.003 400.239 238.45 399.96 237.698 399.96ZM248.919 400.112H246.252V407.151H244.927V400.112H242.291V398.985H248.919V400.112ZM253.62 398.848C254.616 398.848 255.352 399.066 255.829 399.503C256.307 399.94 256.545 400.636 256.545 401.59V407.151H255.57L255.311 405.993H255.25C255.017 406.288 254.773 406.537 254.519 406.74C254.275 406.933 253.991 407.075 253.666 407.167C253.351 407.258 252.965 407.304 252.508 407.304C252.02 407.304 251.579 407.217 251.182 407.045C250.796 406.872 250.492 406.608 250.268 406.252C250.045 405.887 249.933 405.43 249.933 404.881C249.933 404.069 250.253 403.444 250.893 403.007C251.533 402.56 252.518 402.317 253.849 402.276L255.235 402.23V401.743C255.235 401.062 255.088 400.59 254.793 400.326C254.499 400.062 254.082 399.93 253.544 399.93C253.117 399.93 252.711 399.996 252.325 400.128C251.939 400.25 251.579 400.392 251.243 400.554L250.832 399.549C251.188 399.356 251.609 399.193 252.097 399.061C252.584 398.919 253.092 398.848 253.62 398.848ZM254.016 403.205C253.001 403.246 252.295 403.408 251.899 403.693C251.513 403.977 251.32 404.378 251.32 404.896C251.32 405.354 251.457 405.689 251.731 405.902C252.015 406.115 252.376 406.222 252.813 406.222C253.503 406.222 254.077 406.034 254.534 405.658C254.991 405.272 255.22 404.683 255.22 403.891V403.16L254.016 403.205ZM265.284 407.151H263.928V400.097H261.521C261.419 401.387 261.292 402.489 261.14 403.403C260.987 404.307 260.794 405.044 260.561 405.613C260.327 406.181 260.048 406.598 259.723 406.862C259.398 407.126 259.017 407.258 258.58 407.258C258.448 407.258 258.316 407.248 258.184 407.228C258.062 407.217 257.961 407.192 257.879 407.151V406.146C257.94 406.166 258.006 406.181 258.077 406.192C258.148 406.202 258.22 406.207 258.291 406.207C258.514 406.207 258.717 406.115 258.9 405.933C259.083 405.75 259.245 405.47 259.388 405.095C259.54 404.719 259.677 404.246 259.799 403.678C259.921 403.099 260.028 402.418 260.119 401.636C260.21 400.854 260.292 399.97 260.363 398.985H265.284V407.151ZM214.948 426.039C216.238 425.003 217.248 424.155 217.979 423.495C218.711 422.824 219.325 422.129 219.823 421.407C220.331 420.676 220.585 419.96 220.585 419.259C220.585 418.599 220.422 418.081 220.097 417.705C219.782 417.319 219.269 417.126 218.558 417.126C217.868 417.126 217.329 417.345 216.943 417.781C216.568 418.208 216.364 418.782 216.334 419.503H214.993C215.034 418.365 215.379 417.487 216.029 416.867C216.679 416.248 217.517 415.938 218.543 415.938C219.589 415.938 220.417 416.227 221.027 416.806C221.646 417.385 221.956 418.183 221.956 419.198C221.956 420.041 221.702 420.864 221.194 421.666C220.697 422.459 220.128 423.16 219.488 423.769C218.848 424.368 218.03 425.069 217.035 425.872H222.276V427.029H214.948V426.039ZM223.879 421.529C223.879 419.782 224.163 418.421 224.732 417.446C225.301 416.461 226.296 415.968 227.718 415.968C229.13 415.968 230.12 416.461 230.689 417.446C231.258 418.421 231.542 419.782 231.542 421.529C231.542 423.307 231.258 424.688 230.689 425.673C230.12 426.659 229.13 427.151 227.718 427.151C226.296 427.151 225.301 426.659 224.732 425.673C224.163 424.688 223.879 423.307 223.879 421.529ZM230.171 421.529C230.171 420.646 230.11 419.899 229.988 419.29C229.877 418.67 229.638 418.172 229.272 417.797C228.917 417.421 228.399 417.233 227.718 417.233C227.027 417.233 226.499 417.421 226.134 417.797C225.778 418.172 225.539 418.67 225.418 419.29C225.306 419.899 225.25 420.646 225.25 421.529C225.25 422.444 225.306 423.21 225.418 423.83C225.539 424.45 225.778 424.947 226.134 425.323C226.499 425.699 227.027 425.887 227.718 425.887C228.399 425.887 228.917 425.699 229.272 425.323C229.638 424.947 229.877 424.45 229.988 423.83C230.11 423.21 230.171 422.444 230.171 421.529ZM233.278 426.039C234.568 425.003 235.579 424.155 236.31 423.495C237.041 422.824 237.656 422.129 238.154 421.407C238.661 420.676 238.915 419.96 238.915 419.259C238.915 418.599 238.753 418.081 238.428 417.705C238.113 417.319 237.6 417.126 236.889 417.126C236.198 417.126 235.66 417.345 235.274 417.781C234.898 418.208 234.695 418.782 234.665 419.503H233.324C233.364 418.365 233.71 417.487 234.36 416.867C235.01 416.248 235.848 415.938 236.874 415.938C237.92 415.938 238.748 416.227 239.357 416.806C239.977 417.385 240.287 418.183 240.287 419.198C240.287 420.041 240.033 420.864 239.525 421.666C239.027 422.459 238.458 423.16 237.818 423.769C237.179 424.368 236.361 425.069 235.365 425.872H240.607V427.029H233.278V426.039ZM241.844 417.4V416.136H244.708V427.151H243.306V417.4H241.844Z" fill="#808A9D"/>
<path d="M310.457 397.4V396.136H313.321V407.151H311.92V397.4H310.457ZM324.945 398.985H326.407L322.918 402.916L326.697 407.151H325.143L321.456 403.007V407.151H320.115V398.985H321.456V402.946L324.945 398.985ZM334.746 401.042C334.746 401.55 334.594 401.946 334.289 402.23C333.984 402.515 333.593 402.708 333.116 402.809V402.87C333.624 402.941 334.065 403.124 334.441 403.419C334.817 403.703 335.005 404.15 335.005 404.759C335.005 405.105 334.939 405.425 334.807 405.719C334.685 406.014 334.492 406.268 334.228 406.481C333.964 406.694 333.624 406.862 333.207 406.984C332.791 407.096 332.288 407.151 331.699 407.151H328.179V398.985H331.684C332.263 398.985 332.781 399.051 333.238 399.183C333.705 399.305 334.071 399.518 334.335 399.823C334.609 400.117 334.746 400.524 334.746 401.042ZM333.619 404.759C333.619 404.292 333.441 403.957 333.085 403.754C332.73 403.551 332.207 403.449 331.516 403.449H329.52V406.07H331.546C332.217 406.07 332.73 405.973 333.085 405.78C333.441 405.577 333.619 405.237 333.619 404.759ZM333.39 401.209C333.39 400.823 333.248 400.544 332.963 400.371C332.689 400.189 332.237 400.097 331.607 400.097H329.52V402.337H331.364C332.024 402.337 332.527 402.245 332.872 402.063C333.217 401.88 333.39 401.595 333.39 401.209ZM340.051 398.848C341.046 398.848 341.782 399.066 342.26 399.503C342.737 399.94 342.976 400.636 342.976 401.59V407.151H342.001L341.742 405.993H341.681C341.447 406.288 341.204 406.537 340.95 406.74C340.706 406.933 340.421 407.075 340.096 407.167C339.781 407.258 339.396 407.304 338.938 407.304C338.451 407.304 338.009 407.217 337.613 407.045C337.227 406.872 336.922 406.608 336.699 406.252C336.475 405.887 336.364 405.43 336.364 404.881C336.364 404.069 336.684 403.444 337.323 403.007C337.963 402.56 338.949 402.317 340.279 402.276L341.666 402.23V401.743C341.666 401.062 341.518 400.59 341.224 400.326C340.929 400.062 340.513 399.93 339.974 399.93C339.548 399.93 339.142 399.996 338.756 400.128C338.37 400.25 338.009 400.392 337.674 400.554L337.263 399.549C337.618 399.356 338.04 399.193 338.527 399.061C339.015 398.919 339.522 398.848 340.051 398.848ZM340.447 403.205C339.431 403.246 338.725 403.408 338.329 403.693C337.943 403.977 337.75 404.378 337.75 404.896C337.75 405.354 337.887 405.689 338.161 405.902C338.446 406.115 338.806 406.222 339.243 406.222C339.934 406.222 340.508 406.034 340.965 405.658C341.422 405.272 341.65 404.683 341.65 403.891V403.16L340.447 403.205ZM349.383 398.833C350.389 398.833 351.196 399.183 351.806 399.884C352.425 400.585 352.735 401.641 352.735 403.053C352.735 403.977 352.593 404.759 352.309 405.399C352.034 406.029 351.643 406.506 351.135 406.831C350.638 407.146 350.049 407.304 349.368 407.304C348.952 407.304 348.581 407.248 348.256 407.136C347.931 407.024 347.652 406.882 347.418 406.71C347.194 406.527 347.001 406.329 346.839 406.115H346.748C346.768 406.288 346.788 406.506 346.808 406.77C346.829 407.035 346.839 407.263 346.839 407.456V410.808H345.498V398.985H346.595L346.778 400.097H346.839C347.001 399.864 347.194 399.65 347.418 399.457C347.652 399.264 347.926 399.112 348.241 399C348.566 398.888 348.947 398.833 349.383 398.833ZM349.14 399.96C348.591 399.96 348.149 400.067 347.814 400.28C347.479 400.483 347.235 400.793 347.083 401.209C346.93 401.626 346.849 402.154 346.839 402.794V403.053C346.839 403.723 346.91 404.292 347.052 404.759C347.194 405.227 347.433 405.582 347.768 405.826C348.114 406.07 348.581 406.192 349.17 406.192C349.668 406.192 350.074 406.054 350.389 405.78C350.714 405.506 350.953 405.135 351.105 404.668C351.267 404.191 351.349 403.647 351.349 403.038C351.349 402.103 351.166 401.357 350.8 400.798C350.445 400.239 349.891 399.96 349.14 399.96ZM360.36 400.112H357.694V407.151H356.368V400.112H353.733V398.985H360.36V400.112ZM365.062 398.848C366.057 398.848 366.794 399.066 367.271 399.503C367.748 399.94 367.987 400.636 367.987 401.59V407.151H367.012L366.753 405.993H366.692C366.458 406.288 366.215 406.537 365.961 406.74C365.717 406.933 365.433 407.075 365.108 407.167C364.793 407.258 364.407 407.304 363.95 407.304C363.462 407.304 363.02 407.217 362.624 407.045C362.238 406.872 361.933 406.608 361.71 406.252C361.486 405.887 361.375 405.43 361.375 404.881C361.375 404.069 361.695 403.444 362.335 403.007C362.974 402.56 363.96 402.317 365.29 402.276L366.677 402.23V401.743C366.677 401.062 366.53 400.59 366.235 400.326C365.94 400.062 365.524 399.93 364.986 399.93C364.559 399.93 364.153 399.996 363.767 400.128C363.381 400.25 363.02 400.392 362.685 400.554L362.274 399.549C362.629 399.356 363.051 399.193 363.538 399.061C364.026 398.919 364.534 398.848 365.062 398.848ZM365.458 403.205C364.442 403.246 363.736 403.408 363.34 403.693C362.954 403.977 362.761 404.378 362.761 404.896C362.761 405.354 362.898 405.689 363.173 405.902C363.457 406.115 363.818 406.222 364.254 406.222C364.945 406.222 365.519 406.034 365.976 405.658C366.433 405.272 366.662 404.683 366.662 403.891V403.16L365.458 403.205ZM376.726 407.151H375.37V400.097H372.962C372.861 401.387 372.734 402.489 372.581 403.403C372.429 404.307 372.236 405.044 372.002 405.613C371.769 406.181 371.489 406.598 371.164 406.862C370.839 407.126 370.459 407.258 370.022 407.258C369.89 407.258 369.758 407.248 369.626 407.228C369.504 407.217 369.402 407.192 369.321 407.151V406.146C369.382 406.166 369.448 406.181 369.519 406.192C369.59 406.202 369.661 406.207 369.732 406.207C369.956 406.207 370.159 406.115 370.342 405.933C370.525 405.75 370.687 405.47 370.829 405.095C370.982 404.719 371.119 404.246 371.241 403.678C371.363 403.099 371.469 402.418 371.561 401.636C371.652 400.854 371.733 399.97 371.804 398.985H376.726V407.151ZM326.798 426.039C328.088 425.003 329.099 424.155 329.83 423.495C330.562 422.824 331.176 422.129 331.674 421.407C332.182 420.676 332.436 419.96 332.436 419.259C332.436 418.599 332.273 418.081 331.948 417.705C331.633 417.319 331.12 417.126 330.409 417.126C329.719 417.126 329.18 417.345 328.794 417.781C328.418 418.208 328.215 418.782 328.185 419.503H326.844C326.885 418.365 327.23 417.487 327.88 416.867C328.53 416.248 329.368 415.938 330.394 415.938C331.44 415.938 332.268 416.227 332.877 416.806C333.497 417.385 333.807 418.183 333.807 419.198C333.807 420.041 333.553 420.864 333.045 421.666C332.547 422.459 331.979 423.16 331.339 423.769C330.699 424.368 329.881 425.069 328.886 425.872H334.127V427.029H326.798V426.039ZM335.73 421.529C335.73 419.782 336.014 418.421 336.583 417.446C337.152 416.461 338.147 415.968 339.569 415.968C340.981 415.968 341.971 416.461 342.54 417.446C343.109 418.421 343.393 419.782 343.393 421.529C343.393 423.307 343.109 424.688 342.54 425.673C341.971 426.659 340.981 427.151 339.569 427.151C338.147 427.151 337.152 426.659 336.583 425.673C336.014 424.688 335.73 423.307 335.73 421.529ZM342.022 421.529C342.022 420.646 341.961 419.899 341.839 419.29C341.727 418.67 341.489 418.172 341.123 417.797C340.767 417.421 340.249 417.233 339.569 417.233C338.878 417.233 338.35 417.421 337.984 417.797C337.629 418.172 337.39 418.67 337.268 419.29C337.157 419.899 337.101 420.646 337.101 421.529C337.101 422.444 337.157 423.21 337.268 423.83C337.39 424.45 337.629 424.947 337.984 425.323C338.35 425.699 338.878 425.887 339.569 425.887C340.249 425.887 340.767 425.699 341.123 425.323C341.489 424.947 341.727 424.45 341.839 423.83C341.961 423.21 342.022 422.444 342.022 421.529ZM345.129 426.039C346.419 425.003 347.43 424.155 348.161 423.495C348.892 422.824 349.507 422.129 350.004 421.407C350.512 420.676 350.766 419.96 350.766 419.259C350.766 418.599 350.604 418.081 350.279 417.705C349.964 417.319 349.451 417.126 348.74 417.126C348.049 417.126 347.511 417.345 347.125 417.781C346.749 418.208 346.546 418.782 346.515 419.503H345.175C345.215 418.365 345.561 417.487 346.211 416.867C346.861 416.248 347.699 415.938 348.725 415.938C349.771 415.938 350.599 416.227 351.208 416.806C351.828 417.385 352.137 418.183 352.137 419.198C352.137 420.041 351.883 420.864 351.376 421.666C350.878 422.459 350.309 423.16 349.669 423.769C349.029 424.368 348.212 425.069 347.216 425.872H352.457V427.029H345.129V426.039ZM353.893 426.039C355.182 425.003 356.193 424.155 356.924 423.495C357.656 422.824 358.27 422.129 358.768 421.407C359.276 420.676 359.53 419.96 359.53 419.259C359.53 418.599 359.367 418.081 359.042 417.705C358.727 417.319 358.214 417.126 357.503 417.126C356.813 417.126 356.274 417.345 355.888 417.781C355.513 418.208 355.309 418.782 355.279 419.503H353.938C353.979 418.365 354.324 417.487 354.974 416.867C355.624 416.248 356.462 415.938 357.488 415.938C358.534 415.938 359.362 416.227 359.972 416.806C360.591 417.385 360.901 418.183 360.901 419.198C360.901 420.041 360.647 420.864 360.139 421.666C359.641 422.459 359.073 423.16 358.433 423.769C357.793 424.368 356.975 425.069 355.98 425.872H361.221V427.029H353.893V426.039Z" fill="#808A9D"/>
<path d="M422.443 406.039C423.732 405.003 424.743 404.155 425.474 403.495C426.206 402.824 426.82 402.129 427.318 401.407C427.826 400.676 428.08 399.96 428.08 399.259C428.08 398.599 427.917 398.081 427.592 397.705C427.277 397.319 426.764 397.126 426.053 397.126C425.363 397.126 424.824 397.345 424.438 397.781C424.063 398.208 423.859 398.782 423.829 399.503H422.488C422.529 398.365 422.874 397.487 423.524 396.867C424.174 396.248 425.012 395.938 426.038 395.938C427.084 395.938 427.912 396.227 428.522 396.806C429.141 397.385 429.451 398.183 429.451 399.198C429.451 400.041 429.197 400.864 428.689 401.666C428.191 402.459 427.623 403.16 426.983 403.769C426.343 404.368 425.525 405.069 424.53 405.872H429.771V407.029H422.443V406.039ZM440.616 398.985H442.078L438.589 402.916L442.368 407.151H440.814L437.127 403.007V407.151H435.786V398.985H437.127V402.946L440.616 398.985ZM450.417 401.042C450.417 401.55 450.265 401.946 449.96 402.23C449.655 402.515 449.264 402.708 448.787 402.809V402.87C449.295 402.941 449.736 403.124 450.112 403.419C450.488 403.703 450.676 404.15 450.676 404.759C450.676 405.105 450.61 405.425 450.478 405.719C450.356 406.014 450.163 406.268 449.899 406.481C449.635 406.694 449.295 406.862 448.878 406.984C448.462 407.096 447.959 407.151 447.37 407.151H443.85V398.985H447.355C447.933 398.985 448.451 399.051 448.909 399.183C449.376 399.305 449.741 399.518 450.006 399.823C450.28 400.117 450.417 400.524 450.417 401.042ZM449.289 404.759C449.289 404.292 449.112 403.957 448.756 403.754C448.401 403.551 447.878 403.449 447.187 403.449H445.191V406.07H447.217C447.888 406.07 448.401 405.973 448.756 405.78C449.112 405.577 449.289 405.237 449.289 404.759ZM449.061 401.209C449.061 400.823 448.919 400.544 448.634 400.371C448.36 400.189 447.908 400.097 447.278 400.097H445.191V402.337H447.035C447.695 402.337 448.198 402.245 448.543 402.063C448.888 401.88 449.061 401.595 449.061 401.209ZM455.722 398.848C456.717 398.848 457.453 399.066 457.931 399.503C458.408 399.94 458.647 400.636 458.647 401.59V407.151H457.672L457.413 405.993H457.352C457.118 406.288 456.874 406.537 456.62 406.74C456.377 406.933 456.092 407.075 455.767 407.167C455.452 407.258 455.066 407.304 454.609 407.304C454.122 407.304 453.68 407.217 453.284 407.045C452.898 406.872 452.593 406.608 452.37 406.252C452.146 405.887 452.035 405.43 452.035 404.881C452.035 404.069 452.354 403.444 452.994 403.007C453.634 402.56 454.62 402.317 455.95 402.276L457.337 402.23V401.743C457.337 401.062 457.189 400.59 456.895 400.326C456.6 400.062 456.184 399.93 455.645 399.93C455.219 399.93 454.813 399.996 454.427 400.128C454.041 400.25 453.68 400.392 453.345 400.554L452.933 399.549C453.289 399.356 453.71 399.193 454.198 399.061C454.686 398.919 455.193 398.848 455.722 398.848ZM456.118 403.205C455.102 403.246 454.396 403.408 454 403.693C453.614 403.977 453.421 404.378 453.421 404.896C453.421 405.354 453.558 405.689 453.832 405.902C454.117 406.115 454.477 406.222 454.914 406.222C455.605 406.222 456.179 406.034 456.636 405.658C457.093 405.272 457.321 404.683 457.321 403.891V403.16L456.118 403.205ZM465.054 398.833C466.06 398.833 466.867 399.183 467.477 399.884C468.096 400.585 468.406 401.641 468.406 403.053C468.406 403.977 468.264 404.759 467.98 405.399C467.705 406.029 467.314 406.506 466.806 406.831C466.309 407.146 465.72 407.304 465.039 407.304C464.623 407.304 464.252 407.248 463.927 407.136C463.602 407.024 463.322 406.882 463.089 406.71C462.865 406.527 462.672 406.329 462.51 406.115H462.418C462.439 406.288 462.459 406.506 462.479 406.77C462.5 407.035 462.51 407.263 462.51 407.456V410.808H461.169V398.985H462.266L462.449 400.097H462.51C462.672 399.864 462.865 399.65 463.089 399.457C463.322 399.264 463.597 399.112 463.912 399C464.237 398.888 464.617 398.833 465.054 398.833ZM464.81 399.96C464.262 399.96 463.82 400.067 463.485 400.28C463.15 400.483 462.906 400.793 462.754 401.209C462.601 401.626 462.52 402.154 462.51 402.794V403.053C462.51 403.723 462.581 404.292 462.723 404.759C462.865 405.227 463.104 405.582 463.439 405.826C463.785 406.07 464.252 406.192 464.841 406.192C465.339 406.192 465.745 406.054 466.06 405.78C466.385 405.506 466.624 405.135 466.776 404.668C466.938 404.191 467.02 403.647 467.02 403.038C467.02 402.103 466.837 401.357 466.471 400.798C466.116 400.239 465.562 399.96 464.81 399.96ZM476.031 400.112H473.365V407.151H472.039V400.112H469.404V398.985H476.031V400.112ZM480.733 398.848C481.728 398.848 482.465 399.066 482.942 399.503C483.419 399.94 483.658 400.636 483.658 401.59V407.151H482.683L482.424 405.993H482.363C482.129 406.288 481.886 406.537 481.632 406.74C481.388 406.933 481.103 407.075 480.778 407.167C480.464 407.258 480.078 407.304 479.621 407.304C479.133 407.304 478.691 407.217 478.295 407.045C477.909 406.872 477.604 406.608 477.381 406.252C477.157 405.887 477.046 405.43 477.046 404.881C477.046 404.069 477.366 403.444 478.006 403.007C478.645 402.56 479.631 402.317 480.961 402.276L482.348 402.23V401.743C482.348 401.062 482.2 400.59 481.906 400.326C481.611 400.062 481.195 399.93 480.657 399.93C480.23 399.93 479.824 399.996 479.438 400.128C479.052 400.25 478.691 400.392 478.356 400.554L477.945 399.549C478.3 399.356 478.722 399.193 479.209 399.061C479.697 398.919 480.205 398.848 480.733 398.848ZM481.129 403.205C480.113 403.246 479.407 403.408 479.011 403.693C478.625 403.977 478.432 404.378 478.432 404.896C478.432 405.354 478.569 405.689 478.843 405.902C479.128 406.115 479.488 406.222 479.925 406.222C480.616 406.222 481.19 406.034 481.647 405.658C482.104 405.272 482.332 404.683 482.332 403.891V403.16L481.129 403.205ZM492.396 407.151H491.04V400.097H488.633C488.532 401.387 488.405 402.489 488.252 403.403C488.1 404.307 487.907 405.044 487.673 405.613C487.44 406.181 487.16 406.598 486.835 406.862C486.51 407.126 486.129 407.258 485.693 407.258C485.561 407.258 485.429 407.248 485.297 407.228C485.175 407.217 485.073 407.192 484.992 407.151V406.146C485.053 406.166 485.119 406.181 485.19 406.192C485.261 406.202 485.332 406.207 485.403 406.207C485.627 406.207 485.83 406.115 486.013 405.933C486.195 405.75 486.358 405.47 486.5 405.095C486.653 404.719 486.79 404.246 486.912 403.678C487.033 403.099 487.14 402.418 487.232 401.636C487.323 400.854 487.404 399.97 487.475 398.985H492.396V407.151ZM440.528 426.039C441.818 425.003 442.828 424.155 443.56 423.495C444.291 422.824 444.905 422.129 445.403 421.407C445.911 420.676 446.165 419.96 446.165 419.259C446.165 418.599 446.002 418.081 445.677 417.705C445.362 417.319 444.849 417.126 444.138 417.126C443.448 417.126 442.909 417.345 442.523 417.781C442.148 418.208 441.945 418.782 441.914 419.503H440.573C440.614 418.365 440.959 417.487 441.609 416.867C442.259 416.248 443.097 415.938 444.123 415.938C445.169 415.938 445.997 416.227 446.607 416.806C447.226 417.385 447.536 418.183 447.536 419.198C447.536 420.041 447.282 420.864 446.774 421.666C446.277 422.459 445.708 423.16 445.068 423.769C444.428 424.368 443.61 425.069 442.615 425.872H447.856V427.029H440.528V426.039ZM449.459 421.529C449.459 419.782 449.743 418.421 450.312 417.446C450.881 416.461 451.876 415.968 453.298 415.968C454.71 415.968 455.7 416.461 456.269 417.446C456.838 418.421 457.122 419.782 457.122 421.529C457.122 423.307 456.838 424.688 456.269 425.673C455.7 426.659 454.71 427.151 453.298 427.151C451.876 427.151 450.881 426.659 450.312 425.673C449.743 424.688 449.459 423.307 449.459 421.529ZM455.751 421.529C455.751 420.646 455.69 419.899 455.568 419.29C455.457 418.67 455.218 418.172 454.852 417.797C454.497 417.421 453.979 417.233 453.298 417.233C452.608 417.233 452.079 417.421 451.714 417.797C451.358 418.172 451.119 418.67 450.998 419.29C450.886 419.899 450.83 420.646 450.83 421.529C450.83 422.444 450.886 423.21 450.998 423.83C451.119 424.45 451.358 424.947 451.714 425.323C452.079 425.699 452.608 425.887 453.298 425.887C453.979 425.887 454.497 425.699 454.852 425.323C455.218 424.947 455.457 424.45 455.568 423.83C455.69 423.21 455.751 422.444 455.751 421.529ZM458.858 426.039C460.148 425.003 461.159 424.155 461.89 423.495C462.621 422.824 463.236 422.129 463.734 421.407C464.242 420.676 464.495 419.96 464.495 419.259C464.495 418.599 464.333 418.081 464.008 417.705C463.693 417.319 463.18 417.126 462.469 417.126C461.778 417.126 461.24 417.345 460.854 417.781C460.478 418.208 460.275 418.782 460.245 419.503H458.904C458.945 418.365 459.29 417.487 459.94 416.867C460.59 416.248 461.428 415.938 462.454 415.938C463.5 415.938 464.328 416.227 464.937 416.806C465.557 417.385 465.867 418.183 465.867 419.198C465.867 420.041 465.613 420.864 465.105 421.666C464.607 422.459 464.038 423.16 463.398 423.769C462.759 424.368 461.941 425.069 460.946 425.872H466.187V427.029H458.858V426.039ZM467.622 426.039C468.912 425.003 469.922 424.155 470.654 423.495C471.385 422.824 472 422.129 472.497 421.407C473.005 420.676 473.259 419.96 473.259 419.259C473.259 418.599 473.097 418.081 472.771 417.705C472.457 417.319 471.944 417.126 471.233 417.126C470.542 417.126 470.004 417.345 469.618 417.781C469.242 418.208 469.039 418.782 469.008 419.503H467.667C467.708 418.365 468.053 417.487 468.704 416.867C469.354 416.248 470.192 415.938 471.217 415.938C472.264 415.938 473.091 416.227 473.701 416.806C474.32 417.385 474.63 418.183 474.63 419.198C474.63 420.041 474.376 420.864 473.868 421.666C473.371 422.459 472.802 423.16 472.162 423.769C471.522 424.368 470.704 425.069 469.709 425.872H474.95V427.029H467.622V426.039Z" fill="#808A9D"/>
<path d="M537.252 398.909C537.323 397.974 537.683 397.243 538.333 396.715C538.983 396.187 539.826 395.923 540.863 395.923C541.553 395.923 542.147 396.05 542.645 396.303C543.153 396.547 543.534 396.882 543.788 397.309C544.052 397.736 544.184 398.218 544.184 398.756C544.184 399.386 544.001 399.93 543.635 400.387C543.28 400.844 542.813 401.138 542.234 401.27V401.347C542.894 401.509 543.417 401.829 543.803 402.306C544.189 402.784 544.382 403.408 544.382 404.18C544.382 404.759 544.25 405.282 543.986 405.75C543.722 406.207 543.326 406.567 542.797 406.831C542.269 407.096 541.634 407.228 540.893 407.228C539.816 407.228 538.933 406.948 538.242 406.39C537.551 405.821 537.165 405.018 537.084 403.982H538.425C538.496 404.592 538.745 405.089 539.171 405.475C539.598 405.861 540.167 406.054 540.878 406.054C541.589 406.054 542.127 405.872 542.493 405.506C542.869 405.13 543.056 404.648 543.056 404.058C543.056 403.297 542.803 402.748 542.295 402.413C541.787 402.078 541.02 401.91 539.994 401.91H539.644V400.752H540.009C540.944 400.742 541.65 400.59 542.127 400.295C542.604 399.991 542.843 399.523 542.843 398.894C542.843 398.355 542.665 397.924 542.31 397.599C541.965 397.273 541.467 397.111 540.817 397.111C540.187 397.111 539.679 397.273 539.293 397.599C538.907 397.924 538.679 398.36 538.608 398.909H537.252ZM555.496 398.985H556.959L553.47 402.916L557.248 407.151H555.694L552.007 403.007V407.151H550.666V398.985H552.007V402.946L555.496 398.985ZM565.297 401.042C565.297 401.55 565.145 401.946 564.84 402.23C564.535 402.515 564.144 402.708 563.667 402.809V402.87C564.175 402.941 564.617 403.124 564.992 403.419C565.368 403.703 565.556 404.15 565.556 404.759C565.556 405.105 565.49 405.425 565.358 405.719C565.236 406.014 565.043 406.268 564.779 406.481C564.515 406.694 564.175 406.862 563.758 406.984C563.342 407.096 562.839 407.151 562.25 407.151H558.731V398.985H562.235C562.814 398.985 563.332 399.051 563.789 399.183C564.256 399.305 564.622 399.518 564.886 399.823C565.16 400.117 565.297 400.524 565.297 401.042ZM564.17 404.759C564.17 404.292 563.992 403.957 563.636 403.754C563.281 403.551 562.758 403.449 562.067 403.449H560.071V406.07H562.098C562.768 406.07 563.281 405.973 563.636 405.78C563.992 405.577 564.17 405.237 564.17 404.759ZM563.941 401.209C563.941 400.823 563.799 400.544 563.515 400.371C563.24 400.189 562.788 400.097 562.159 400.097H560.071V402.337H561.915C562.575 402.337 563.078 402.245 563.423 402.063C563.769 401.88 563.941 401.595 563.941 401.209ZM570.602 398.848C571.597 398.848 572.334 399.066 572.811 399.503C573.288 399.94 573.527 400.636 573.527 401.59V407.151H572.552L572.293 405.993H572.232C571.998 406.288 571.755 406.537 571.501 406.74C571.257 406.933 570.973 407.075 570.648 407.167C570.333 407.258 569.947 407.304 569.49 407.304C569.002 407.304 568.56 407.217 568.164 407.045C567.778 406.872 567.473 406.608 567.25 406.252C567.027 405.887 566.915 405.43 566.915 404.881C566.915 404.069 567.235 403.444 567.875 403.007C568.515 402.56 569.5 402.317 570.83 402.276L572.217 402.23V401.743C572.217 401.062 572.07 400.59 571.775 400.326C571.48 400.062 571.064 399.93 570.526 399.93C570.099 399.93 569.693 399.996 569.307 400.128C568.921 400.25 568.56 400.392 568.225 400.554L567.814 399.549C568.169 399.356 568.591 399.193 569.078 399.061C569.566 398.919 570.074 398.848 570.602 398.848ZM570.998 403.205C569.982 403.246 569.276 403.408 568.88 403.693C568.494 403.977 568.301 404.378 568.301 404.896C568.301 405.354 568.438 405.689 568.713 405.902C568.997 406.115 569.358 406.222 569.794 406.222C570.485 406.222 571.059 406.034 571.516 405.658C571.973 405.272 572.202 404.683 572.202 403.891V403.16L570.998 403.205ZM579.935 398.833C580.94 398.833 581.748 399.183 582.357 399.884C582.977 400.585 583.286 401.641 583.286 403.053C583.286 403.977 583.144 404.759 582.86 405.399C582.586 406.029 582.194 406.506 581.687 406.831C581.189 407.146 580.6 407.304 579.919 407.304C579.503 407.304 579.132 407.248 578.807 407.136C578.482 407.024 578.203 406.882 577.969 406.71C577.746 406.527 577.553 406.329 577.39 406.115H577.299C577.319 406.288 577.339 406.506 577.36 406.77C577.38 407.035 577.39 407.263 577.39 407.456V410.808H576.049V398.985H577.146L577.329 400.097H577.39C577.553 399.864 577.746 399.65 577.969 399.457C578.203 399.264 578.477 399.112 578.792 399C579.117 398.888 579.498 398.833 579.935 398.833ZM579.691 399.96C579.142 399.96 578.7 400.067 578.365 400.28C578.03 400.483 577.786 400.793 577.634 401.209C577.482 401.626 577.4 402.154 577.39 402.794V403.053C577.39 403.723 577.461 404.292 577.603 404.759C577.746 405.227 577.984 405.582 578.32 405.826C578.665 406.07 579.132 406.192 579.721 406.192C580.219 406.192 580.625 406.054 580.94 405.78C581.265 405.506 581.504 405.135 581.656 404.668C581.819 404.191 581.9 403.647 581.9 403.038C581.9 402.103 581.717 401.357 581.351 400.798C580.996 400.239 580.442 399.96 579.691 399.96ZM590.911 400.112H588.245V407.151H586.92V400.112H584.284V398.985H590.911V400.112ZM595.613 398.848C596.608 398.848 597.345 399.066 597.822 399.503C598.3 399.94 598.538 400.636 598.538 401.59V407.151H597.563L597.304 405.993H597.243C597.01 406.288 596.766 406.537 596.512 406.74C596.268 406.933 595.984 407.075 595.659 407.167C595.344 407.258 594.958 407.304 594.501 407.304C594.013 407.304 593.571 407.217 593.175 407.045C592.789 406.872 592.485 406.608 592.261 406.252C592.038 405.887 591.926 405.43 591.926 404.881C591.926 404.069 592.246 403.444 592.886 403.007C593.526 402.56 594.511 402.317 595.842 402.276L597.228 402.23V401.743C597.228 401.062 597.081 400.59 596.786 400.326C596.492 400.062 596.075 399.93 595.537 399.93C595.11 399.93 594.704 399.996 594.318 400.128C593.932 400.25 593.571 400.392 593.236 400.554L592.825 399.549C593.18 399.356 593.602 399.193 594.089 399.061C594.577 398.919 595.085 398.848 595.613 398.848ZM596.009 403.205C594.993 403.246 594.287 403.408 593.891 403.693C593.505 403.977 593.312 404.378 593.312 404.896C593.312 405.354 593.45 405.689 593.724 405.902C594.008 406.115 594.369 406.222 594.805 406.222C595.496 406.222 596.07 406.034 596.527 405.658C596.984 405.272 597.213 404.683 597.213 403.891V403.16L596.009 403.205ZM607.277 407.151H605.921V400.097H603.513C603.412 401.387 603.285 402.489 603.133 403.403C602.98 404.307 602.787 405.044 602.554 405.613C602.32 406.181 602.041 406.598 601.716 406.862C601.391 407.126 601.01 407.258 600.573 407.258C600.441 407.258 600.309 407.248 600.177 407.228C600.055 407.217 599.953 407.192 599.872 407.151V406.146C599.933 406.166 599.999 406.181 600.07 406.192C600.141 406.202 600.212 406.207 600.283 406.207C600.507 406.207 600.71 406.115 600.893 405.933C601.076 405.75 601.238 405.47 601.38 405.095C601.533 404.719 601.67 404.246 601.792 403.678C601.914 403.099 602.02 402.418 602.112 401.636C602.203 400.854 602.284 399.97 602.356 398.985H607.277V407.151ZM555.304 426.039C556.594 425.003 557.604 424.155 558.336 423.495C559.067 422.824 559.681 422.129 560.179 421.407C560.687 420.676 560.941 419.96 560.941 419.259C560.941 418.599 560.778 418.081 560.453 417.705C560.139 417.319 559.626 417.126 558.915 417.126C558.224 417.126 557.686 417.345 557.3 417.781C556.924 418.208 556.721 418.782 556.69 419.503H555.349C555.39 418.365 555.735 417.487 556.385 416.867C557.036 416.248 557.874 415.938 558.899 415.938C559.946 415.938 560.773 416.227 561.383 416.806C562.002 417.385 562.312 418.183 562.312 419.198C562.312 420.041 562.058 420.864 561.55 421.666C561.053 422.459 560.484 423.16 559.844 423.769C559.204 424.368 558.386 425.069 557.391 425.872H562.632V427.029H555.304V426.039ZM564.235 421.529C564.235 419.782 564.519 418.421 565.088 417.446C565.657 416.461 566.652 415.968 568.074 415.968C569.486 415.968 570.476 416.461 571.045 417.446C571.614 418.421 571.899 419.782 571.899 421.529C571.899 423.307 571.614 424.688 571.045 425.673C570.476 426.659 569.486 427.151 568.074 427.151C566.652 427.151 565.657 426.659 565.088 425.673C564.519 424.688 564.235 423.307 564.235 421.529ZM570.527 421.529C570.527 420.646 570.466 419.899 570.344 419.29C570.233 418.67 569.994 418.172 569.628 417.797C569.273 417.421 568.755 417.233 568.074 417.233C567.384 417.233 566.855 417.421 566.49 417.797C566.134 418.172 565.896 418.67 565.774 419.29C565.662 419.899 565.606 420.646 565.606 421.529C565.606 422.444 565.662 423.21 565.774 423.83C565.896 424.45 566.134 424.947 566.49 425.323C566.855 425.699 567.384 425.887 568.074 425.887C568.755 425.887 569.273 425.699 569.628 425.323C569.994 424.947 570.233 424.45 570.344 423.83C570.466 423.21 570.527 422.444 570.527 421.529ZM573.634 426.039C574.924 425.003 575.935 424.155 576.666 423.495C577.398 422.824 578.012 422.129 578.51 421.407C579.018 420.676 579.272 419.96 579.272 419.259C579.272 418.599 579.109 418.081 578.784 417.705C578.469 417.319 577.956 417.126 577.245 417.126C576.555 417.126 576.016 417.345 575.63 417.781C575.254 418.208 575.051 418.782 575.021 419.503H573.68C573.721 418.365 574.066 417.487 574.716 416.867C575.366 416.248 576.204 415.938 577.23 415.938C578.276 415.938 579.104 416.227 579.713 416.806C580.333 417.385 580.643 418.183 580.643 419.198C580.643 420.041 580.389 420.864 579.881 421.666C579.383 422.459 578.814 423.16 578.175 423.769C577.535 424.368 576.717 425.069 575.722 425.872H580.963V427.029H573.634V426.039ZM582.398 426.039C583.688 425.003 584.698 424.155 585.43 423.495C586.161 422.824 586.776 422.129 587.273 421.407C587.781 420.676 588.035 419.96 588.035 419.259C588.035 418.599 587.873 418.081 587.548 417.705C587.233 417.319 586.72 417.126 586.009 417.126C585.318 417.126 584.78 417.345 584.394 417.781C584.018 418.208 583.815 418.782 583.784 419.503H582.444C582.484 418.365 582.83 417.487 583.48 416.867C584.13 416.248 584.968 415.938 585.994 415.938C587.04 415.938 587.868 416.227 588.477 416.806C589.097 417.385 589.406 418.183 589.406 419.198C589.406 420.041 589.152 420.864 588.645 421.666C588.147 422.459 587.578 423.16 586.938 423.769C586.298 424.368 585.481 425.069 584.485 425.872H589.726V427.029H582.398V426.039Z" fill="#808A9D"/>
<path d="M652.434 404.698V403.647L657.782 396.243H659.443V403.495H660.966V404.698H659.443V407.151H658.071V404.698H652.434ZM658.132 397.69L654.034 403.495H658.132V397.69ZM671.593 398.985H673.056L669.567 402.916L673.345 407.151H671.791L668.104 403.007V407.151H666.764V398.985H668.104V402.946L671.593 398.985ZM681.394 401.042C681.394 401.55 681.242 401.946 680.937 402.23C680.633 402.515 680.242 402.708 679.764 402.809V402.87C680.272 402.941 680.714 403.124 681.09 403.419C681.466 403.703 681.653 404.15 681.653 404.759C681.653 405.105 681.587 405.425 681.455 405.719C681.333 406.014 681.14 406.268 680.876 406.481C680.612 406.694 680.272 406.862 679.856 406.984C679.439 407.096 678.936 407.151 678.347 407.151H674.828V398.985H678.332C678.911 398.985 679.429 399.051 679.886 399.183C680.353 399.305 680.719 399.518 680.983 399.823C681.257 400.117 681.394 400.524 681.394 401.042ZM680.267 404.759C680.267 404.292 680.089 403.957 679.734 403.754C679.378 403.551 678.855 403.449 678.164 403.449H676.169V406.07H678.195C678.865 406.07 679.378 405.973 679.734 405.78C680.089 405.577 680.267 405.237 680.267 404.759ZM680.038 401.209C680.038 400.823 679.896 400.544 679.612 400.371C679.338 400.189 678.886 400.097 678.256 400.097H676.169V402.337H678.012C678.672 402.337 679.175 402.245 679.52 402.063C679.866 401.88 680.038 401.595 680.038 401.209ZM686.699 398.848C687.695 398.848 688.431 399.066 688.908 399.503C689.386 399.94 689.624 400.636 689.624 401.59V407.151H688.649L688.39 405.993H688.329C688.096 406.288 687.852 406.537 687.598 406.74C687.354 406.933 687.07 407.075 686.745 407.167C686.43 407.258 686.044 407.304 685.587 407.304C685.099 407.304 684.658 407.217 684.261 407.045C683.875 406.872 683.571 406.608 683.347 406.252C683.124 405.887 683.012 405.43 683.012 404.881C683.012 404.069 683.332 403.444 683.972 403.007C684.612 402.56 685.597 402.317 686.928 402.276L688.314 402.23V401.743C688.314 401.062 688.167 400.59 687.872 400.326C687.578 400.062 687.161 399.93 686.623 399.93C686.196 399.93 685.79 399.996 685.404 400.128C685.018 400.25 684.658 400.392 684.322 400.554L683.911 399.549C684.266 399.356 684.688 399.193 685.176 399.061C685.663 398.919 686.171 398.848 686.699 398.848ZM687.095 403.205C686.08 403.246 685.374 403.408 684.977 403.693C684.591 403.977 684.398 404.378 684.398 404.896C684.398 405.354 684.536 405.689 684.81 405.902C685.094 406.115 685.455 406.222 685.892 406.222C686.582 406.222 687.156 406.034 687.613 405.658C688.07 405.272 688.299 404.683 688.299 403.891V403.16L687.095 403.205ZM696.032 398.833C697.037 398.833 697.845 399.183 698.454 399.884C699.074 400.585 699.384 401.641 699.384 403.053C699.384 403.977 699.241 404.759 698.957 405.399C698.683 406.029 698.292 406.506 697.784 406.831C697.286 407.146 696.697 407.304 696.017 407.304C695.6 407.304 695.229 407.248 694.904 407.136C694.579 407.024 694.3 406.882 694.066 406.71C693.843 406.527 693.65 406.329 693.487 406.115H693.396C693.416 406.288 693.437 406.506 693.457 406.77C693.477 407.035 693.487 407.263 693.487 407.456V410.808H692.147V398.985H693.244L693.426 400.097H693.487C693.65 399.864 693.843 399.65 694.066 399.457C694.3 399.264 694.574 399.112 694.889 399C695.214 398.888 695.595 398.833 696.032 398.833ZM695.788 399.96C695.239 399.96 694.798 400.067 694.462 400.28C694.127 400.483 693.884 400.793 693.731 401.209C693.579 401.626 693.498 402.154 693.487 402.794V403.053C693.487 403.723 693.558 404.292 693.701 404.759C693.843 405.227 694.082 405.582 694.417 405.826C694.762 406.07 695.229 406.192 695.818 406.192C696.316 406.192 696.722 406.054 697.037 405.78C697.362 405.506 697.601 405.135 697.753 404.668C697.916 404.191 697.997 403.647 697.997 403.038C697.997 402.103 697.814 401.357 697.449 400.798C697.093 400.239 696.54 399.96 695.788 399.96ZM707.009 400.112H704.342V407.151H703.017V400.112H700.381V398.985H707.009V400.112ZM711.71 398.848C712.706 398.848 713.442 399.066 713.919 399.503C714.397 399.94 714.636 400.636 714.636 401.59V407.151H713.66L713.401 405.993H713.34C713.107 406.288 712.863 406.537 712.609 406.74C712.365 406.933 712.081 407.075 711.756 407.167C711.441 407.258 711.055 407.304 710.598 407.304C710.11 407.304 709.669 407.217 709.273 407.045C708.887 406.872 708.582 406.608 708.358 406.252C708.135 405.887 708.023 405.43 708.023 404.881C708.023 404.069 708.343 403.444 708.983 403.007C709.623 402.56 710.608 402.317 711.939 402.276L713.325 402.23V401.743C713.325 401.062 713.178 400.59 712.883 400.326C712.589 400.062 712.172 399.93 711.634 399.93C711.207 399.93 710.801 399.996 710.415 400.128C710.029 400.25 709.669 400.392 709.333 400.554L708.922 399.549C709.278 399.356 709.699 399.193 710.187 399.061C710.674 398.919 711.182 398.848 711.71 398.848ZM712.106 403.205C711.091 403.246 710.385 403.408 709.989 403.693C709.603 403.977 709.41 404.378 709.41 404.896C709.41 405.354 709.547 405.689 709.821 405.902C710.105 406.115 710.466 406.222 710.903 406.222C711.593 406.222 712.167 406.034 712.624 405.658C713.081 405.272 713.31 404.683 713.31 403.891V403.16L712.106 403.205ZM723.374 407.151H722.018V400.097H719.611C719.509 401.387 719.382 402.489 719.23 403.403C719.077 404.307 718.884 405.044 718.651 405.613C718.417 406.181 718.138 406.598 717.813 406.862C717.488 407.126 717.107 407.258 716.67 407.258C716.538 407.258 716.406 407.248 716.274 407.228C716.152 407.217 716.051 407.192 715.969 407.151V406.146C716.03 406.166 716.096 406.181 716.167 406.192C716.239 406.202 716.31 406.207 716.381 406.207C716.604 406.207 716.807 406.115 716.99 405.933C717.173 405.75 717.336 405.47 717.478 405.095C717.63 404.719 717.767 404.246 717.889 403.678C718.011 403.099 718.118 402.418 718.209 401.636C718.3 400.854 718.382 399.97 718.453 398.985H723.374V407.151ZM671.096 426.039C672.386 425.003 673.397 424.155 674.128 423.495C674.859 422.824 675.474 422.129 675.971 421.407C676.479 420.676 676.733 419.96 676.733 419.259C676.733 418.599 676.571 418.081 676.246 417.705C675.931 417.319 675.418 417.126 674.707 417.126C674.016 417.126 673.478 417.345 673.092 417.781C672.716 418.208 672.513 418.782 672.482 419.503H671.142C671.182 418.365 671.528 417.487 672.178 416.867C672.828 416.248 673.666 415.938 674.692 415.938C675.738 415.938 676.566 416.227 677.175 416.806C677.795 417.385 678.104 418.183 678.104 419.198C678.104 420.041 677.851 420.864 677.343 421.666C676.845 422.459 676.276 423.16 675.636 423.769C674.996 424.368 674.179 425.069 673.183 425.872H678.424V427.029H671.096V426.039ZM680.027 421.529C680.027 419.782 680.312 418.421 680.88 417.446C681.449 416.461 682.445 415.968 683.867 415.968C685.278 415.968 686.269 416.461 686.838 417.446C687.406 418.421 687.691 419.782 687.691 421.529C687.691 423.307 687.406 424.688 686.838 425.673C686.269 426.659 685.278 427.151 683.867 427.151C682.445 427.151 681.449 426.659 680.88 425.673C680.312 424.688 680.027 423.307 680.027 421.529ZM686.32 421.529C686.32 420.646 686.259 419.899 686.137 419.29C686.025 418.67 685.786 418.172 685.421 417.797C685.065 417.421 684.547 417.233 683.867 417.233C683.176 417.233 682.648 417.421 682.282 417.797C681.927 418.172 681.688 418.67 681.566 419.29C681.454 419.899 681.398 420.646 681.398 421.529C681.398 422.444 681.454 423.21 681.566 423.83C681.688 424.45 681.927 424.947 682.282 425.323C682.648 425.699 683.176 425.887 683.867 425.887C684.547 425.887 685.065 425.699 685.421 425.323C685.786 424.947 686.025 424.45 686.137 423.83C686.259 423.21 686.32 422.444 686.32 421.529ZM689.427 426.039C690.717 425.003 691.727 424.155 692.458 423.495C693.19 422.824 693.804 422.129 694.302 421.407C694.81 420.676 695.064 419.96 695.064 419.259C695.064 418.599 694.901 418.081 694.576 417.705C694.261 417.319 693.748 417.126 693.037 417.126C692.347 417.126 691.808 417.345 691.422 417.781C691.047 418.208 690.843 418.782 690.813 419.503H689.472C689.513 418.365 689.858 417.487 690.508 416.867C691.158 416.248 691.996 415.938 693.022 415.938C694.068 415.938 694.896 416.227 695.506 416.806C696.125 417.385 696.435 418.183 696.435 419.198C696.435 420.041 696.181 420.864 695.673 421.666C695.176 422.459 694.607 423.16 693.967 423.769C693.327 424.368 692.509 425.069 691.514 425.872H696.755V427.029H689.427V426.039ZM698.19 426.039C699.48 425.003 700.491 424.155 701.222 423.495C701.953 422.824 702.568 422.129 703.066 421.407C703.573 420.676 703.827 419.96 703.827 419.259C703.827 418.599 703.665 418.081 703.34 417.705C703.025 417.319 702.512 417.126 701.801 417.126C701.11 417.126 700.572 417.345 700.186 417.781C699.81 418.208 699.607 418.782 699.577 419.503H698.236C698.276 418.365 698.622 417.487 699.272 416.867C699.922 416.248 700.76 415.938 701.786 415.938C702.832 415.938 703.66 416.227 704.269 416.806C704.889 417.385 705.199 418.183 705.199 419.198C705.199 420.041 704.945 420.864 704.437 421.666C703.939 422.459 703.37 423.16 702.73 423.769C702.09 424.368 701.273 425.069 700.277 425.872H705.519V427.029H698.19V426.039Z" fill="#808A9D"/>
<path d="M75.4348 356.252H144.374V381.496H75.4348V356.252Z" fill="#9440FF"/>
<path d="M75.4348 356.252H149.478L154.444 349.483H84.5396L75.4348 356.252Z" fill="#8339E1"/>
<path d="M154.532 349.516L144.375 356.277V381.494L154.532 375.185V349.516Z" fill="#6C2CBD"/>
<path d="M190.128 332.046H259.068V381.496H190.128V332.046Z" fill="#56FFEB"/>
<path d="M190.128 332.046H259.137L269.216 325.255L199.233 325.278L190.128 332.046Z" fill="#48EDD9"/>
<path d="M269.225 325.255L259.068 332.015V381.494L269.225 375.185V325.255Z" fill="#40BDAE"/>
<path d="M305.286 75.2898H374.226V381.496H305.286V75.2898Z" fill="#40C6FF"/>
<path d="M305.286 75.2921H374.295L384.381 68.4802L314.391 68.5236L305.286 75.2921Z" fill="#44BFF4"/>
<path d="M384.383 68.4802L374.226 75.2406V381.494L384.383 375.186V68.4802Z" fill="#4BACE3"/>
<path d="M534.305 228.575H603.244V381.496H534.305V228.575Z" fill="#9440FF"/>
<path d="M534.305 228.696H603.314L613.4 221.884L543.409 221.927L534.305 228.696Z" fill="#8339E1"/>
<path d="M613.402 221.884L603.244 228.644V381.494L613.402 375.186V221.884Z" fill="#6C2CBD"/>
<path d="M422.673 377.504H491.613V381.496H422.673V377.504Z" fill="#56FFEB"/>
<path d="M422.675 377.6H491.684L501.77 370.788L431.78 370.831L422.675 377.6Z" fill="#48EDD9"/>
<path d="M501.77 370.788L491.613 377.548L491.613 381.494L501.77 375.186L501.77 370.788Z" fill="#40BDAE"/>
<path d="M648.765 377.504H717.705V381.496H648.765V377.504Z" fill="#2809E4"/>
<path d="M648.767 377.6H717.776L727.862 370.788L657.872 370.831L648.767 377.6Z" fill="#220F98"/>
<path d="M727.862 370.788L717.705 377.548L717.705 381.494L727.862 375.186L727.862 370.788Z" fill="#231097"/>
</svg>
