<svg width="404" height="303" viewBox="0 0 404 303" fill="none" xmlns="http://www.w3.org/2000/svg">
<rect x="15.8586" y="131.826" width="1.28629" height="124.77" fill="url(#paint0_linear_363_2184)"/>
<rect x="0.42334" y="162.699" width="32.1572" height="57.883" fill="url(#paint1_linear_363_2184)"/>
<rect x="57.02" y="82.9431" width="1.28629" height="159.5" fill="url(#paint2_linear_363_2184)"/>
<rect x="41.5847" y="95.8074" width="32.1572" height="72.0322" fill="url(#paint3_linear_363_2184)"/>
<rect x="98.1804" y="0.622314" width="1.28629" height="160.786" fill="url(#paint4_linear_363_2184)"/>
<rect x="82.7444" y="70.0811" width="32.1572" height="27.0121" fill="url(#paint5_linear_363_2184)"/>
<rect x="139.341" y="40.4941" width="1.28629" height="145.351" fill="url(#paint6_linear_363_2184)"/>
<rect x="123.906" y="68.7888" width="32.1572" height="75.8911" fill="url(#paint7_linear_363_2184)"/>
<rect x="180.503" y="75.2236" width="1.28629" height="97.758" fill="url(#paint8_linear_363_2184)"/>
<rect x="165.068" y="131.823" width="32.1572" height="15.4355" fill="url(#paint9_linear_363_2184)"/>
<rect x="221.664" y="205.145" width="1.28629" height="97.758" fill="url(#paint10_linear_363_2184)"/>
<rect x="206.229" y="131.826" width="32.1572" height="119.625" fill="url(#paint11_linear_363_2184)"/>
<rect x="262.826" y="170.415" width="1.28629" height="97.758" fill="url(#paint12_linear_363_2184)"/>
<rect x="247.39" y="172.988" width="32.1572" height="78.4636" fill="url(#paint13_linear_363_2184)"/>
<rect x="303.986" y="131.826" width="1.28629" height="140.206" fill="url(#paint14_linear_363_2184)"/>
<rect x="288.551" y="172.988" width="32.1572" height="69.4596" fill="url(#paint15_linear_363_2184)"/>
<rect x="345.147" y="113.814" width="1.28629" height="140.206" fill="url(#paint16_linear_363_2184)"/>
<rect x="329.712" y="59.7925" width="32.1572" height="187.798" fill="url(#paint17_linear_363_2184)"/>
<rect x="386.309" y="25.0649" width="1.28629" height="124.77" fill="url(#paint18_linear_363_2184)"/>
<rect x="370.874" y="59.793" width="32.1572" height="11.5766" fill="url(#paint19_linear_363_2184)"/>
<defs>
<linearGradient id="paint0_linear_363_2184" x1="16.5018" y1="131.826" x2="16.5018" y2="256.596" gradientUnits="userSpaceOnUse">
<stop stop-color="#2809E4"/>
<stop offset="1" stop-color="#8878EF"/>
</linearGradient>
<linearGradient id="paint1_linear_363_2184" x1="16.502" y1="162.699" x2="16.502" y2="220.582" gradientUnits="userSpaceOnUse">
<stop stop-color="#2809E4"/>
<stop offset="1" stop-color="#8878EF"/>
</linearGradient>
<linearGradient id="paint2_linear_363_2184" x1="57.6632" y1="82.9431" x2="57.6632" y2="242.443" gradientUnits="userSpaceOnUse">
<stop stop-color="#2809E4"/>
<stop offset="1" stop-color="#8878EF"/>
</linearGradient>
<linearGradient id="paint3_linear_363_2184" x1="57.6633" y1="95.8074" x2="57.6633" y2="167.84" gradientUnits="userSpaceOnUse">
<stop stop-color="#2809E4"/>
<stop offset="1" stop-color="#8878EF"/>
</linearGradient>
<linearGradient id="paint4_linear_363_2184" x1="98.8236" y1="0.622314" x2="98.8236" y2="161.408" gradientUnits="userSpaceOnUse">
<stop stop-color="#2809E4"/>
<stop offset="1" stop-color="#8878EF"/>
</linearGradient>
<linearGradient id="paint5_linear_363_2184" x1="98.823" y1="70.0811" x2="98.823" y2="97.0931" gradientUnits="userSpaceOnUse">
<stop stop-color="#2809E4"/>
<stop offset="1" stop-color="#8878EF"/>
</linearGradient>
<linearGradient id="paint6_linear_363_2184" x1="139.984" y1="40.4941" x2="139.984" y2="185.845" gradientUnits="userSpaceOnUse">
<stop stop-color="#F9BAFF"/>
<stop offset="1" stop-color="#F05FFD"/>
</linearGradient>
<linearGradient id="paint7_linear_363_2184" x1="139.984" y1="68.7888" x2="139.984" y2="144.68" gradientUnits="userSpaceOnUse">
<stop stop-color="#F9BAFF"/>
<stop offset="1" stop-color="#F05FFD"/>
</linearGradient>
<linearGradient id="paint8_linear_363_2184" x1="181.146" y1="75.2236" x2="181.146" y2="172.982" gradientUnits="userSpaceOnUse">
<stop stop-color="#2809E4"/>
<stop offset="1" stop-color="#8878EF"/>
</linearGradient>
<linearGradient id="paint9_linear_363_2184" x1="181.146" y1="131.823" x2="181.146" y2="147.258" gradientUnits="userSpaceOnUse">
<stop stop-color="#2809E4"/>
<stop offset="1" stop-color="#8878EF"/>
</linearGradient>
<linearGradient id="paint10_linear_363_2184" x1="222.307" y1="205.145" x2="222.307" y2="302.903" gradientUnits="userSpaceOnUse">
<stop stop-color="#F9BAFF"/>
<stop offset="1" stop-color="#F05FFD"/>
</linearGradient>
<linearGradient id="paint11_linear_363_2184" x1="222.308" y1="131.826" x2="222.308" y2="251.451" gradientUnits="userSpaceOnUse">
<stop stop-color="#F9BAFF"/>
<stop offset="1" stop-color="#F05FFD"/>
</linearGradient>
<linearGradient id="paint12_linear_363_2184" x1="263.469" y1="170.415" x2="263.469" y2="268.173" gradientUnits="userSpaceOnUse">
<stop stop-color="#2809E4"/>
<stop offset="1" stop-color="#8878EF"/>
</linearGradient>
<linearGradient id="paint13_linear_363_2184" x1="263.469" y1="172.988" x2="263.469" y2="251.452" gradientUnits="userSpaceOnUse">
<stop stop-color="#2809E4"/>
<stop offset="1" stop-color="#8878EF"/>
</linearGradient>
<linearGradient id="paint14_linear_363_2184" x1="304.629" y1="131.826" x2="304.629" y2="272.032" gradientUnits="userSpaceOnUse">
<stop stop-color="#F9BAFF"/>
<stop offset="1" stop-color="#F05FFD"/>
</linearGradient>
<linearGradient id="paint15_linear_363_2184" x1="304.629" y1="172.988" x2="304.629" y2="242.448" gradientUnits="userSpaceOnUse">
<stop stop-color="#F9BAFF"/>
<stop offset="1" stop-color="#F05FFD"/>
</linearGradient>
<linearGradient id="paint16_linear_363_2184" x1="345.791" y1="113.814" x2="345.791" y2="254.019" gradientUnits="userSpaceOnUse">
<stop stop-color="#2809E4"/>
<stop offset="1" stop-color="#8878EF"/>
</linearGradient>
<linearGradient id="paint17_linear_363_2184" x1="345.791" y1="59.7925" x2="345.791" y2="247.591" gradientUnits="userSpaceOnUse">
<stop stop-color="#2809E4"/>
<stop offset="1" stop-color="#8878EF"/>
</linearGradient>
<linearGradient id="paint18_linear_363_2184" x1="386.952" y1="25.0649" x2="386.952" y2="149.835" gradientUnits="userSpaceOnUse">
<stop stop-color="#F9BAFF"/>
<stop offset="1" stop-color="#F05FFD"/>
</linearGradient>
<linearGradient id="paint19_linear_363_2184" x1="386.952" y1="59.793" x2="386.952" y2="71.3696" gradientUnits="userSpaceOnUse">
<stop stop-color="#F9BAFF"/>
<stop offset="1" stop-color="#F05FFD"/>
</linearGradient>
</defs>
</svg>
